<svg width="14" height="14" viewBox="0 0 14 14" fill="none" xmlns="http://www.w3.org/2000/svg">
<g clip-path="url(#clip0_23_682)">
<path d="M13.9992 6.98881C13.9852 7.06155 14.1446 9.63154 12.0873 11.8076C9.32306 14.7313 4.67419 14.7298 1.91215 11.8073C-0.634767 9.11265 -0.640001 4.89359 1.91215 2.1934C3.66931 0.33413 6.23022 -0.372001 8.60518 0.185876C9.48744 0.392983 9.93391 1.38056 9.51436 2.18368C9.21913 2.74893 8.57794 3.03764 7.95854 2.89333C6.52812 2.55998 4.98961 2.98861 3.93506 4.10458C2.39815 5.7295 2.39975 8.27279 3.93506 9.896C5.59907 11.6576 8.40138 11.6568 10.0644 9.896C10.4949 9.44099 10.8249 8.89005 11.0192 8.27824H8.69116C8.02669 8.27824 7.48782 7.73927 7.48782 7.07479C7.48782 6.41032 8.02637 5.87135 8.69116 5.87135H12.8718C13.4903 5.87135 13.9983 6.37005 13.9992 6.98881Z" fill="#FFDA44"/>
<path d="M13.9977 6.98856V7.00009C13.9977 8.79324 13.3186 10.5035 12.0859 11.8074C10.7712 13.1978 8.90903 14.0373 6.85547 13.998V11.2142C8.12076 11.2546 9.26289 10.743 10.063 9.89575C10.4936 9.44073 10.8235 8.8898 11.0179 8.27798H8.68985C8.02527 8.27798 7.4864 7.73901 7.4864 7.07454C7.4864 6.41006 8.02495 5.87109 8.68985 5.87109H12.8703C13.4889 5.87109 13.9969 6.3698 13.9977 6.98856Z" fill="#0FA9DD"/>
<path d="M9.51442 2.18354C9.21951 2.74846 8.57928 3.03739 7.9586 2.89309C6.53278 2.56154 4.99373 2.98398 3.93501 4.10444L1.91211 2.19326C3.67311 0.329931 6.23499 -0.370753 8.60524 0.185842C9.48718 0.39295 9.93376 1.38042 9.51442 2.18354Z" fill="#FF6426"/>
<path d="M12.0873 11.8081C9.32237 14.7324 4.67426 14.7303 1.91211 11.8078L3.93512 9.89648C5.59967 11.6582 8.40102 11.6576 10.0644 9.89648L12.0873 11.8081Z" fill="#6FBF6B"/>
</g>
<defs>
<clipPath id="clip0_23_682">
<rect width="14" height="14" fill="white"/>
</clipPath>
</defs>
</svg>
