<svg width="48" height="48" viewBox="0 0 48 48" fill="none" xmlns="http://www.w3.org/2000/svg">
<path d="M38.2237 21C37.905 21 36.8372 21.0094 36.5362 21.0281L30.4519 21.1875C30.4202 21.1894 30.3887 21.1826 30.3607 21.1677C30.3328 21.1528 30.3095 21.1304 30.2934 21.1031L18.1453 6.33375C18.0716 6.23621 17.9776 6.15585 17.8698 6.09822C17.762 6.04059 17.643 6.00708 17.5209 6H15L21.8437 21.0938C21.8601 21.1283 21.8671 21.1665 21.8642 21.2046C21.8613 21.2427 21.8486 21.2794 21.8272 21.3111C21.8058 21.3428 21.7766 21.3683 21.7423 21.3853C21.7081 21.4022 21.67 21.41 21.6319 21.4078L10.2234 21.5766C10.1047 21.5802 9.98682 21.5557 9.87932 21.5052C9.77181 21.4547 9.67772 21.3796 9.60468 21.2859L6.13593 17.0672C5.85468 16.7016 5.32781 16.5047 4.86937 16.5047H3.10125C2.98031 16.5047 2.99812 16.6181 3.03093 16.7325L4.89093 23.4281C5.03153 23.7867 5.03153 24.1852 4.89093 24.5437L3.02906 31.2188C2.97375 31.4016 2.98031 31.5 3.195 31.5H4.875C5.63812 31.5 5.74218 31.4006 6.13218 30.9094L9.66656 26.625C9.74024 26.5321 9.83445 26.4575 9.94181 26.407C10.0492 26.3566 10.1667 26.3317 10.2853 26.3344L21.5991 26.5875C21.6403 26.5884 21.6806 26.5994 21.7166 26.6195C21.7526 26.6395 21.7831 26.6681 21.8056 26.7026C21.828 26.7372 21.8417 26.7767 21.8454 26.8177C21.8491 26.8588 21.8428 26.9001 21.8269 26.9381L15 42H17.4975C17.6193 41.9929 17.7381 41.9595 17.8457 41.902C17.9534 41.8446 18.0473 41.7644 18.1209 41.6672L30.2944 26.9062C30.3309 26.85 30.4819 26.8219 30.5466 26.8219L36.5372 26.9812C36.8466 27 37.905 27.0094 38.2247 27.0094C42.375 27.0094 45 25.8684 45 24C45 22.1316 42.3862 21 38.2237 21Z" stroke="white" stroke-width="3" stroke-linecap="round" stroke-linejoin="round"/>
</svg>
