<svg width="48" height="48" viewBox="0 0 48 48" fill="none" xmlns="http://www.w3.org/2000/svg">
<path d="M32.25 26.25L40.5 18M21.75 20.25L27.75 26.25M7.5 30L17.25 20.25" stroke="white" stroke-width="3" stroke-linecap="round" stroke-linejoin="round"/>
<path d="M42.75 18C43.9926 18 45 16.9926 45 15.75C45 14.5074 43.9926 13.5 42.75 13.5C41.5074 13.5 40.5 14.5074 40.5 15.75C40.5 16.9926 41.5074 18 42.75 18Z" stroke="white" stroke-width="3" stroke-linecap="round" stroke-linejoin="round"/>
<path d="M30 30.75C31.2426 30.75 32.25 29.7426 32.25 28.5C32.25 27.2574 31.2426 26.25 30 26.25C28.7574 26.25 27.75 27.2574 27.75 28.5C27.75 29.7426 28.7574 30.75 30 30.75Z" stroke="white" stroke-width="3" stroke-linecap="round" stroke-linejoin="round"/>
<path d="M19.5 20.25C20.7426 20.25 21.75 19.2426 21.75 18C21.75 16.7574 20.7426 15.75 19.5 15.75C18.2574 15.75 17.25 16.7574 17.25 18C17.25 19.2426 18.2574 20.25 19.5 20.25Z" stroke="white" stroke-width="3" stroke-linecap="round" stroke-linejoin="round"/>
<path d="M5.25 34.5C6.49264 34.5 7.5 33.4926 7.5 32.25C7.5 31.0074 6.49264 30 5.25 30C4.00736 30 3 31.0074 3 32.25C3 33.4926 4.00736 34.5 5.25 34.5Z" stroke="white" stroke-width="3" stroke-linecap="round" stroke-linejoin="round"/>
</svg>
