<svg width="48" height="48" viewBox="0 0 48 48" fill="none" xmlns="http://www.w3.org/2000/svg">
<path d="M33 12C29.9756 11.7291 27 13.5 24 13.5C21 13.5 18.0234 11.7187 15 12C9 12.5625 6 18 6 27C6 34.5 12 45 16.425 45C20.85 45 21.2944 42.75 24 42.75C26.7056 42.75 27.1491 45 31.575 45C36.0009 45 42 34.5 42 27C42 18 39.2812 12.5625 33 12Z" stroke="white" stroke-width="3" stroke-miterlimit="10"/>
<path d="M30.3675 7.79438C28.3987 9.76313 26.0868 10.3256 24.8531 10.4934C24.7403 10.5097 24.6253 10.5 24.5168 10.4652C24.4083 10.4303 24.3091 10.3712 24.2269 10.2923C24.1446 10.2134 24.0815 10.1168 24.0421 10.0099C24.0028 9.9029 23.9884 9.78838 24 9.67501C24.2225 7.56615 25.1706 5.60006 26.6822 4.11282C28.7447 2.05032 30.9947 1.59094 32.1872 1.50188C32.2985 1.49172 32.4107 1.50658 32.5155 1.54536C32.6204 1.58415 32.7152 1.64588 32.7931 1.72604C32.871 1.8062 32.93 1.90277 32.9658 2.00867C33.0016 2.11458 33.0133 2.22714 33 2.33813C32.7646 4.4022 31.8366 6.32557 30.3675 7.79438Z" fill="white"/>
<path d="M20.25 33C21.4926 33 22.5 30.9853 22.5 28.5C22.5 26.0147 21.4926 24 20.25 24C19.0074 24 18 26.0147 18 28.5C18 30.9853 19.0074 33 20.25 33Z" fill="white"/>
<path d="M27.75 33C28.9926 33 30 30.9853 30 28.5C30 26.0147 28.9926 24 27.75 24C26.5074 24 25.5 26.0147 25.5 28.5C25.5 30.9853 26.5074 33 27.75 33Z" fill="white"/>
</svg>
