<svg width="48" height="48" viewBox="0 0 48 48" fill="none" xmlns="http://www.w3.org/2000/svg">
<path d="M15 16.5V13.5C15 11.1131 15.9482 8.82387 17.636 7.13604C19.3239 5.44821 21.6131 4.5 24 4.5C26.3869 4.5 28.6761 5.44821 30.364 7.13604C32.0518 8.82387 33 11.1131 33 13.5V16.5M7.5 16.5C7.10218 16.5 6.72064 16.658 6.43934 16.9393C6.15804 17.2206 6 17.6022 6 18V38.25C6 41.085 8.415 43.5 11.25 43.5H36.75C39.585 43.5 42 41.2022 42 38.3672V18C42 17.6022 41.842 17.2206 41.5607 16.9393C41.2794 16.658 40.8978 16.5 40.5 16.5H7.5Z" stroke="white" stroke-width="3" stroke-linecap="round" stroke-linejoin="round"/>
</svg>
