<svg width="48" height="48" viewBox="0 0 48 48" fill="none" xmlns="http://www.w3.org/2000/svg">
<path d="M38.8228 14.4206C40.2806 24.7875 32.4234 33.4772 26.4881 34.3125C20.5528 35.1478 10.5994 28.9219 9.14438 18.5925C8.87051 16.6441 8.98311 14.6607 9.47573 12.7558C9.96836 10.8508 10.8314 9.06155 12.0155 7.49012C13.1996 5.91869 14.6817 4.59588 16.377 3.59721C18.0723 2.59854 19.9478 1.94358 21.8963 1.66971C23.8447 1.39584 25.8281 1.50844 27.733 2.00106C29.638 2.49369 31.4272 3.3567 32.9987 4.54082C34.5701 5.72494 35.8929 7.20698 36.8916 8.90233C37.8902 10.5977 38.5452 12.4731 38.8191 14.4216L38.8228 14.4206Z" stroke="white" stroke-width="3" stroke-miterlimit="10"/>
<path d="M22.1307 28.8797C19.0528 27.6609 15.8419 24.839 14.4178 20.8678M34.4719 46.4794C31.3941 45.2606 28.5366 42.7237 27.1125 38.7534" stroke="white" stroke-width="3" stroke-miterlimit="10" stroke-linecap="round"/>
<path d="M25.0041 34.5197L24.1444 39.1706L30.0797 38.3362L27.9713 34.1025L25.0041 34.5197Z" stroke="white" stroke-width="3" stroke-linecap="round" stroke-linejoin="round"/>
</svg>
