<svg width="48" height="48" viewBox="0 0 48 48" fill="none" xmlns="http://www.w3.org/2000/svg">
<g clip-path="url(#clip0_32_88)">
<path d="M30.9074 5.40934L5.40982 30.9069C2.1836 34.1332 2.1836 39.3639 5.40982 42.5901L5.41049 42.5908C8.6367 45.817 13.8674 45.817 17.0937 42.5908L42.5913 17.0932C45.8175 13.867 45.8175 8.63622 42.5913 5.41001L42.5906 5.40934C39.3644 2.18312 34.1336 2.18312 30.9074 5.40934Z" stroke="white" stroke-width="3" stroke-linecap="round" stroke-linejoin="round"/>
<path d="M34.3405 21.0834L26.9159 13.6588C25.7443 12.4872 23.8448 12.4872 22.6732 13.6588L13.9228 22.4092C12.7512 23.5808 12.7512 25.4803 13.9228 26.6519L21.3474 34.0765C22.519 35.2481 24.4185 35.2481 25.5901 34.0765L34.3405 25.3261C35.5121 24.1545 35.5121 22.255 34.3405 21.0834Z" stroke="white" stroke-width="3" stroke-linecap="round" stroke-linejoin="round"/>
<path d="M24 21C24.8284 21 25.5 20.3284 25.5 19.5C25.5 18.6716 24.8284 18 24 18C23.1716 18 22.5 18.6716 22.5 19.5C22.5 20.3284 23.1716 21 24 21Z" fill="white"/>
<path d="M28.5 25.5C29.3284 25.5 30 24.8284 30 24C30 23.1716 29.3284 22.5 28.5 22.5C27.6716 22.5 27 23.1716 27 24C27 24.8284 27.6716 25.5 28.5 25.5Z" fill="white"/>
<path d="M19.5 25.5C20.3284 25.5 21 24.8284 21 24C21 23.1716 20.3284 22.5 19.5 22.5C18.6716 22.5 18 23.1716 18 24C18 24.8284 18.6716 25.5 19.5 25.5Z" fill="white"/>
<path d="M24 30C24.8284 30 25.5 29.3284 25.5 28.5C25.5 27.6716 24.8284 27 24 27C23.1716 27 22.5 27.6716 22.5 28.5C22.5 29.3284 23.1716 30 24 30Z" fill="white"/>
</g>
<defs>
<clipPath id="clip0_32_88">
<rect width="48" height="48" fill="white"/>
</clipPath>
</defs>
</svg>
