<svg width="48" height="48" viewBox="0 0 48 48" fill="none" xmlns="http://www.w3.org/2000/svg">
<path d="M4.5 39V28.5C4.5047 26.9101 5.13835 25.3868 6.26255 24.2626C7.38675 23.1383 8.91015 22.5047 10.5 22.5H37.5C39.0899 22.5047 40.6132 23.1383 41.7374 24.2626C42.8617 25.3868 43.4953 26.9101 43.5 28.5V39M36 22.5H9V12.75C9.00297 11.7564 9.39901 10.8042 10.1016 10.1016C10.8042 9.39901 11.7564 9.00297 12.75 9H35.25C36.2436 9.00297 37.1958 9.39901 37.8984 10.1016C38.601 10.8042 38.997 11.7564 39 12.75V22.5H36Z" stroke="white" stroke-width="3" stroke-linecap="round" stroke-linejoin="round"/>
<path d="M4.5 39V38.25C4.50173 37.6538 4.73934 37.0825 5.16092 36.6609C5.5825 36.2393 6.1538 36.0017 6.75 36H41.25C41.8462 36.0017 42.4175 36.2393 42.8391 36.6609C43.2607 37.0825 43.4983 37.6538 43.5 38.25V39M10.5 22.5V21C10.5022 20.205 10.819 19.4433 11.3811 18.8811C11.9433 18.319 12.705 18.0022 13.5 18H21C21.795 18.0022 22.5567 18.319 23.1189 18.8811C23.681 19.4433 23.9978 20.205 24 21M24 21V22.5M24 21C24.0022 20.205 24.319 19.4433 24.8811 18.8811C25.4433 18.319 26.205 18.0022 27 18H34.5C35.295 18.0022 36.0567 18.319 36.6189 18.8811C37.181 19.4433 37.4978 20.205 37.5 21V22.5" stroke="white" stroke-width="3" stroke-linecap="round" stroke-linejoin="round"/>
</svg>
