<svg width="48" height="48" viewBox="0 0 48 48" fill="none" xmlns="http://www.w3.org/2000/svg">
<path d="M33 18.75V41.25C32.997 42.2436 32.601 43.1958 31.8984 43.8984C31.1958 44.601 30.2436 44.997 29.25 45H12.75C11.7564 44.997 10.8042 44.601 10.1016 43.8984C9.39901 43.1958 9.00297 42.2436 9 41.25V21" stroke="white" stroke-width="3" stroke-linecap="round" stroke-linejoin="round"/>
<path d="M33 21H36.75C38.1412 21.004 39.4742 21.5584 40.4579 22.5421C41.4416 23.5258 41.996 24.8588 42 26.25V33.75C41.996 35.1412 41.4416 36.4742 40.4579 37.4579C39.4742 38.4416 38.1412 38.996 36.75 39H33" stroke="white" stroke-width="3" stroke-miterlimit="10" stroke-linecap="round"/>
<path d="M21 24V39M27 24V39M15 24V39M30 10.5C31.1935 10.5 32.3381 10.9741 33.182 11.818C34.0259 12.6619 34.5 13.8065 34.5 15C34.5 16.1935 34.0259 17.3381 33.182 18.182C32.3381 19.0259 31.1935 19.5 30 19.5C28.7578 19.5 27.2522 18.8147 26.4375 18H15C14.25 20.0625 12.4688 21 10.5 21C9.30653 21 8.16193 20.5259 7.31802 19.682C6.47411 18.8381 6 17.6935 6 16.5C6 15.3065 6.47411 14.1619 7.31802 13.318C8.16193 12.4741 9.30653 12 10.5 12C11.3775 12.0369 12.225 12.3302 12.9375 12.8438" stroke="white" stroke-width="3" stroke-linecap="round" stroke-linejoin="round"/>
<path d="M8.61189 12.4153C8.24418 12.051 7.95588 11.6145 7.76513 11.1333C7.57438 10.6521 7.48532 10.1366 7.50355 9.61933C7.52178 9.10203 7.6469 8.5941 7.87105 8.12753C8.0952 7.66095 8.41351 7.24583 8.80595 6.90831C9.1984 6.57078 9.65646 6.31815 10.1513 6.16633C10.6462 6.01451 11.1671 5.96678 11.6813 6.02615C12.1955 6.08551 12.6919 6.25069 13.1391 6.51128C13.5864 6.77188 13.9748 7.12224 14.28 7.54031C14.28 7.54031 15 8.53125 15 9M13.6716 6.06656C15.3019 4.20844 17.5847 3 20.25 3C25.1606 3 29.0625 7.01625 29.0625 11.9259C29.0628 12.4856 29.0104 13.044 28.9059 13.5938" stroke="white" stroke-width="3" stroke-miterlimit="10" stroke-linecap="round"/>
</svg>
