<svg width="48" height="48" viewBox="0 0 48 48" fill="none" xmlns="http://www.w3.org/2000/svg">
<path d="M36.375 27C34.9658 27 33.5883 27.4179 32.4166 28.2008C31.2449 28.9837 30.3316 30.0965 29.7924 31.3984C29.2531 32.7003 29.112 34.1329 29.3869 35.515C29.6618 36.8971 30.3404 38.1667 31.3369 39.1631C32.3333 40.1596 33.6029 40.8382 34.985 41.1131C36.3671 41.388 37.7997 41.2469 39.1016 40.7076C40.4035 40.1684 41.5163 39.2551 42.2992 38.0834C43.0821 36.9117 43.5 35.5342 43.5 34.125C43.4941 32.2372 42.7415 30.4283 41.4066 29.0934C40.0717 27.7585 38.2628 27.0059 36.375 27ZM11.625 27C10.2158 27 8.83827 27.4179 7.66657 28.2008C6.49487 28.9837 5.58164 30.0965 5.04236 31.3984C4.50309 32.7003 4.36199 34.1329 4.63691 35.515C4.91183 36.8971 5.59042 38.1667 6.58687 39.1631C7.58332 40.1596 8.85287 40.8382 10.235 41.1131C11.6171 41.388 13.0497 41.2469 14.3516 40.7076C15.6535 40.1684 16.7663 39.2551 17.5492 38.0834C18.3321 36.9117 18.75 35.5342 18.75 34.125C18.7441 32.2372 17.9915 30.4283 16.6566 29.0934C15.3217 27.7585 13.5128 27.0059 11.625 27Z" stroke="white" stroke-width="3" stroke-miterlimit="10"/>
<path d="M24 33.75V25.6875L18 21.75L25.5 13.5L29.25 20.25H34.5" stroke="white" stroke-width="3" stroke-linecap="round" stroke-linejoin="round"/>
<path d="M30 12.75C30.3952 12.7513 30.7867 12.6744 31.1519 12.5235C31.5171 12.3726 31.8488 12.1509 32.1277 11.871C32.4067 11.5912 32.6274 11.2588 32.7772 10.8931C32.9269 10.5275 33.0026 10.1357 33 9.7406C33.0044 9.34744 32.9304 8.95735 32.7822 8.59315C32.634 8.22895 32.4148 7.89795 32.1372 7.61949C31.8596 7.34103 31.5293 7.12071 31.1655 6.97141C30.8018 6.82211 30.412 6.74683 30.0188 6.74997C29.6248 6.74874 29.2345 6.82512 28.87 6.97475C28.5056 7.12437 28.1742 7.34432 27.8947 7.62202C27.3304 8.18287 27.0119 8.94495 27.0094 9.7406C27.0069 10.5362 27.3206 11.3003 27.8815 11.8647C28.4423 12.429 29.2044 12.7475 30 12.75Z" fill="white"/>
</svg>
