<svg width="48" height="48" viewBox="0 0 48 48" fill="none" xmlns="http://www.w3.org/2000/svg">
<path d="M15 31.5V4.5L18 6L21 4.5L23.9944 6L27.0291 4.5L30 6L32.9803 4.5L35.9738 6L39 4.5L42.0009 6L45 4.5V25.5" stroke="white" stroke-width="3" stroke-linejoin="round"/>
<path d="M45.0001 25.5V36C45.0001 37.9891 44.2099 39.8968 42.8034 41.3033C41.3968 42.7098 39.4892 43.5 37.5001 43.5M37.5001 43.5C35.5109 43.5 33.6033 42.7098 32.1968 41.3033C30.7902 39.8968 30.0001 37.9891 30.0001 36V31.5H4.50006C4.30259 31.4982 4.10675 31.5359 3.92397 31.6106C3.74119 31.6854 3.57513 31.7958 3.4355 31.9354C3.29586 32.0751 3.18543 32.2411 3.11067 32.4239C3.03591 32.6067 2.99831 32.8025 3.00006 33C3.00006 39 3.63193 43.5 10.5001 43.5H37.5001Z" stroke="white" stroke-width="3" stroke-linejoin="round"/>
<path d="M21 13.5H39M27 21H39" stroke="white" stroke-width="3" stroke-linecap="round" stroke-linejoin="round"/>
</svg>
