<svg width="48" height="48" viewBox="0 0 48 48" fill="none" xmlns="http://www.w3.org/2000/svg">
<path d="M24 15C25.5 9.07876 31.1653 6.05532 43.5 6.00001C43.6972 5.99927 43.8926 6.03756 44.0749 6.11268C44.2572 6.1878 44.4229 6.29826 44.5623 6.43769C44.7018 6.57713 44.8122 6.74278 44.8873 6.92511C44.9625 7.10743 45.0008 7.30282 45 7.50001V34.5C45 34.8978 44.842 35.2794 44.5607 35.5607C44.2794 35.842 43.8978 36 43.5 36C31.5 36 26.8641 38.4197 24 42M24 15C22.5 9.07876 16.8347 6.05532 4.50001 6.00001C4.30282 5.99927 4.10743 6.03756 3.92511 6.11268C3.74278 6.1878 3.57713 6.29826 3.43769 6.43769C3.29826 6.57713 3.1878 6.74278 3.11268 6.92511C3.03756 7.10743 2.99927 7.30282 3.00001 7.50001V34.3191C3.00001 35.2453 3.57376 36 4.50001 36C16.5 36 21.1528 38.4375 24 42M24 15V42" stroke="white" stroke-width="3" stroke-linecap="round" stroke-linejoin="round"/>
</svg>
