<svg width="48" height="48" viewBox="0 0 48 48" fill="none" xmlns="http://www.w3.org/2000/svg">
<path d="M37.5 10.5H10.5C8.84315 10.5 7.5 11.8431 7.5 13.5V25.5C7.5 27.1569 8.84315 28.5 10.5 28.5H37.5C39.1569 28.5 40.5 27.1569 40.5 25.5V13.5C40.5 11.8431 39.1569 10.5 37.5 10.5Z" stroke="white" stroke-width="3" stroke-linecap="round" stroke-linejoin="round"/>
<path d="M37.5 28.5H10.5C8.84315 28.5 7.5 29.8431 7.5 31.5V37.5C7.5 39.1569 8.84315 40.5 10.5 40.5H37.5C39.1569 40.5 40.5 39.1569 40.5 37.5V31.5C40.5 29.8431 39.1569 28.5 37.5 28.5Z" stroke="white" stroke-width="3" stroke-linecap="round" stroke-linejoin="round"/>
<path d="M37.5 10.5H10.5C9.70504 10.4978 8.94327 10.181 8.38114 9.61886C7.81901 9.05673 7.50223 8.29496 7.5 7.5C7.50223 6.70504 7.81901 5.94327 8.38114 5.38114C8.94327 4.81901 9.70504 4.50223 10.5 4.5H37.5C38.295 4.50223 39.0567 4.81901 39.6189 5.38114C40.181 5.94327 40.4978 6.70504 40.5 7.5C40.4978 8.29496 40.181 9.05673 39.6189 9.61886C39.0567 10.181 38.295 10.4978 37.5 10.5ZM13.5 40.5V42.5625C13.5 42.8111 13.4012 43.0496 13.2254 43.2254C13.0496 43.4012 12.8111 43.5 12.5625 43.5H9.9375C9.68886 43.5 9.4504 43.4012 9.27459 43.2254C9.09877 43.0496 9 42.8111 9 42.5625V40.5H13.5ZM39 40.5V42.5625C39 42.8111 38.9012 43.0496 38.7254 43.2254C38.5496 43.4012 38.3111 43.5 38.0625 43.5H35.4375C35.1889 43.5 34.9504 43.4012 34.7746 43.2254C34.5988 43.0496 34.5 42.8111 34.5 42.5625V40.5H39Z" stroke="white" stroke-width="3" stroke-linecap="round" stroke-linejoin="round"/>
<path d="M34.5 36C35.3284 36 36 35.3284 36 34.5C36 33.6716 35.3284 33 34.5 33C33.6716 33 33 33.6716 33 34.5C33 35.3284 33.6716 36 34.5 36Z" stroke="white" stroke-width="3" stroke-linejoin="round"/>
<path d="M13.5 36C14.3284 36 15 35.3284 15 34.5C15 33.6716 14.3284 33 13.5 33C12.6716 33 12 33.6716 12 34.5C12 35.3284 12.6716 36 13.5 36Z" stroke="white" stroke-width="3" stroke-linejoin="round"/>
<path d="M24 10.5V28.5M7.5 7.5V34.5M40.5 7.5V34.5" stroke="white" stroke-width="3" stroke-linecap="round" stroke-linejoin="round"/>
</svg>
