<svg width="48" height="48" viewBox="0 0 48 48" fill="none" xmlns="http://www.w3.org/2000/svg">
<path d="M34.5 7.5H40.5C40.8978 7.5 41.2794 7.65804 41.5607 7.93934C41.842 8.22064 42 8.60218 42 9V12.1875C42 13.3312 41.5456 14.4281 40.7369 15.2369C39.9281 16.0456 38.8312 16.5 37.6875 16.5H34.5M34.5 7.5H9V25.5C9 27.4891 9.79018 29.3968 11.1967 30.8033C12.6032 32.2098 14.5109 33 16.5 33H27C27.9849 33 28.9602 32.806 29.8701 32.4291C30.7801 32.0522 31.6069 31.4997 32.3033 30.8033C32.9997 30.1069 33.5522 29.2801 33.9291 28.3701C34.306 27.4602 34.5 26.4849 34.5 25.5V7.5ZM6 39H37.5" stroke="white" stroke-width="3" stroke-linecap="round" stroke-linejoin="round"/>
</svg>
