<svg width="48" height="48" viewBox="0 0 48 48" fill="none" xmlns="http://www.w3.org/2000/svg">
<path d="M32.8631 13.9387L30.3675 9.99563C29.8416 9.3825 29.1206 9 28.3125 9H19.6875C18.8794 9 18.1584 9.3825 17.6325 9.99563L15.1369 13.9387C14.6109 14.5528 13.9331 15 13.125 15H7.5C6.70435 15 5.94129 15.3161 5.37868 15.8787C4.81607 16.4413 4.5 17.2044 4.5 18V36C4.5 36.7956 4.81607 37.5587 5.37868 38.1213C5.94129 38.6839 6.70435 39 7.5 39H40.5C41.2956 39 42.0587 38.6839 42.6213 38.1213C43.1839 37.5587 43.5 36.7956 43.5 36V18C43.5 17.2044 43.1839 16.4413 42.6213 15.8787C42.0587 15.3161 41.2956 15 40.5 15H34.9688C34.1578 15 33.3891 14.5528 32.8631 13.9387Z" stroke="white" stroke-width="3" stroke-linecap="round" stroke-linejoin="round"/>
<path d="M24 33C28.1421 33 31.5 29.6421 31.5 25.5C31.5 21.3579 28.1421 18 24 18C19.8579 18 16.5 21.3579 16.5 25.5C16.5 29.6421 19.8579 33 24 33Z" stroke="white" stroke-width="3" stroke-miterlimit="10"/>
<path d="M11.625 14.8125V12.75H9.375V14.8125" stroke="white" stroke-width="3" stroke-linecap="round" stroke-linejoin="round"/>
</svg>
