<svg width="48" height="48" viewBox="0 0 48 48" fill="none" xmlns="http://www.w3.org/2000/svg">
<path d="M7.5 21L11.0419 12.7359C11.6184 11.3906 13.0875 10.5 14.7291 10.5H33.2709C34.9125 10.5 36.3816 11.3906 36.9581 12.7359L40.5 21M7.5 21H40.5M7.5 21V34.5M40.5 21V34.5M40.5 34.5H7.5M40.5 34.5V37.5H37.5V34.5M7.5 34.5V37.5H10.5V34.5" stroke="white" stroke-width="3" stroke-linecap="round" stroke-linejoin="round"/>
<path d="M13.5 28.5C14.3284 28.5 15 27.8284 15 27C15 26.1716 14.3284 25.5 13.5 25.5C12.6716 25.5 12 26.1716 12 27C12 27.8284 12.6716 28.5 13.5 28.5Z" stroke="white" stroke-width="3" stroke-linecap="round" stroke-linejoin="round"/>
<path d="M34.5 28.5C35.3284 28.5 36 27.8284 36 27C36 26.1716 35.3284 25.5 34.5 25.5C33.6716 25.5 33 26.1716 33 27C33 27.8284 33.6716 28.5 34.5 28.5Z" stroke="white" stroke-width="3" stroke-linecap="round" stroke-linejoin="round"/>
</svg>
