<svg width="48" height="48" viewBox="0 0 48 48" fill="none" xmlns="http://www.w3.org/2000/svg">
<path d="M16.5 40.5C17.3284 40.5 18 39.8284 18 39C18 38.1716 17.3284 37.5 16.5 37.5C15.6716 37.5 15 38.1716 15 39C15 39.8284 15.6716 40.5 16.5 40.5Z" stroke="white" stroke-width="3" stroke-linecap="round" stroke-linejoin="round"/>
<path d="M37.5 40.5C38.3284 40.5 39 39.8284 39 39C39 38.1716 38.3284 37.5 37.5 37.5C36.6716 37.5 36 38.1716 36 39C36 39.8284 36.6716 40.5 37.5 40.5Z" stroke="white" stroke-width="3" stroke-linecap="round" stroke-linejoin="round"/>
<path d="M4.5 7.5H10.5L15 33H39" stroke="white" stroke-width="3" stroke-linecap="round" stroke-linejoin="round"/>
<path d="M15 27H38.385C38.5585 27.0001 38.7266 26.9401 38.8608 26.8302C38.995 26.7203 39.0869 26.5673 39.1209 26.3972L41.8209 12.8972C41.8427 12.7883 41.8401 12.676 41.8132 12.5683C41.7863 12.4606 41.7358 12.3602 41.6654 12.2743C41.595 12.1885 41.5064 12.1194 41.406 12.0719C41.3057 12.0245 41.196 11.9999 41.085 12H12" stroke="white" stroke-width="3" stroke-linecap="round" stroke-linejoin="round"/>
</svg>
