<svg width="48" height="48" viewBox="0 0 48 48" fill="none" xmlns="http://www.w3.org/2000/svg">
<path d="M4.5 31.5L43.5 31.5C44.3284 31.5 45 30.8284 45 30V9C45 8.17157 44.3284 7.5 43.5 7.5L4.5 7.5C3.67157 7.5 3 8.17157 3 9V30C3 30.8284 3.67157 31.5 4.5 31.5Z" stroke="white" stroke-width="3" stroke-linejoin="round"/>
<path d="M6 36H42M9 40.5H39" stroke="white" stroke-width="3" stroke-linecap="round" stroke-linejoin="round"/>
<path d="M24 27C28.1421 27 31.5 23.6421 31.5 19.5C31.5 15.3579 28.1421 12 24 12C19.8579 12 16.5 15.3579 16.5 19.5C16.5 23.6421 19.8579 27 24 27Z" stroke="white" stroke-width="3" stroke-linecap="round" stroke-linejoin="round"/>
<path d="M45 15C43.0109 15 41.1032 14.2098 39.6967 12.8033C38.2902 11.3968 37.5 9.48912 37.5 7.5M3 15C3.98491 15 4.96018 14.806 5.87013 14.4291C6.78007 14.0522 7.60686 13.4997 8.3033 12.8033C8.99974 12.1069 9.55219 11.2801 9.9291 10.3701C10.306 9.46018 10.5 8.48491 10.5 7.5M45 24C43.0109 24 41.1032 24.7902 39.6967 26.1967C38.2902 27.6032 37.5 29.5109 37.5 31.5M3 24C3.98491 24 4.96018 24.194 5.87013 24.5709C6.78007 24.9478 7.60686 25.5003 8.3033 26.1967C8.99974 26.8931 9.55219 27.7199 9.9291 28.6299C10.306 29.5398 10.5 30.5151 10.5 31.5" stroke="white" stroke-width="3" stroke-linecap="round" stroke-linejoin="round"/>
</svg>
