<svg width="48" height="48" viewBox="0 0 48 48" fill="none" xmlns="http://www.w3.org/2000/svg">
<path d="M43.8291 23.3278C42.1041 15.5297 39.5457 10.5553 35.445 9.34313C34.6509 9.11145 33.8273 8.99588 33 9C30.4791 9 28.4897 10.5 24 10.5C19.5104 10.5 17.5172 9 15 9C14.1382 8.99554 13.28 9.11102 12.45 9.34313C8.3438 10.5553 5.80692 15.5344 4.06224 23.3278C2.28099 31.2881 2.60349 37.5778 6.08536 38.7853C8.52286 39.6291 10.7025 37.8844 12.7669 35.3166C15.1107 32.3916 17.9972 31.4916 24 31.4916C30.0029 31.4916 32.7769 32.3916 35.1244 35.3166C37.1869 37.8863 39.4472 39.6094 41.82 38.8003C45.6657 37.4869 45.6113 31.3819 43.8291 23.3278Z" stroke="white" stroke-width="3" stroke-miterlimit="10"/>
<path d="M27.375 22.875C28.4105 22.875 29.25 22.0355 29.25 21C29.25 19.9645 28.4105 19.125 27.375 19.125C26.3395 19.125 25.5 19.9645 25.5 21C25.5 22.0355 26.3395 22.875 27.375 22.875Z" fill="white"/>
<path d="M31.5 27C31.129 27 30.7663 26.8899 30.4578 26.6837C30.1494 26.4774 29.9091 26.1843 29.7673 25.8414C29.6255 25.4986 29.5886 25.1213 29.6614 24.7575C29.7341 24.3936 29.9131 24.0596 30.1758 23.7975C30.4385 23.5355 30.7731 23.3573 31.1371 23.2855C31.5011 23.2136 31.8783 23.2514 32.2208 23.3941C32.5633 23.5367 32.8558 23.7778 33.0613 24.0867C33.2667 24.3957 33.3759 24.7586 33.375 25.1297C33.3738 25.6262 33.1757 26.1019 32.8242 26.4525C32.4727 26.8031 31.9965 27 31.5 27Z" fill="white"/>
<path d="M31.5 18.75C32.5355 18.75 33.375 17.9105 33.375 16.875C33.375 15.8395 32.5355 15 31.5 15C30.4645 15 29.625 15.8395 29.625 16.875C29.625 17.9105 30.4645 18.75 31.5 18.75Z" fill="white"/>
<path d="M35.625 22.875C36.6605 22.875 37.5 22.0355 37.5 21C37.5 19.9645 36.6605 19.125 35.625 19.125C34.5895 19.125 33.75 19.9645 33.75 21C33.75 22.0355 34.5895 22.875 35.625 22.875Z" fill="white"/>
<path d="M15 16.5V25.5M19.5 21H10.5" stroke="white" stroke-width="3" stroke-linecap="round" stroke-linejoin="round"/>
</svg>
