<svg width="48" height="48" viewBox="0 0 48 48" fill="none" xmlns="http://www.w3.org/2000/svg">
<path d="M38.4816 26.175C38.0128 25.0969 37.2909 24.15 35.8472 23.3531C35.101 22.9312 34.2995 22.6157 33.4659 22.4156C34.0268 22.1551 34.5426 21.807 34.9941 21.3844C35.6578 20.7911 36.1608 20.0397 36.4566 19.2C36.7288 18.3467 36.84 17.4502 36.7847 16.5563C36.6816 14.9813 36.3722 13.4531 35.5472 12.3563C34.7222 11.2594 33.5597 10.4156 32.0222 9.825C30.8409 9.375 29.6316 9.09375 27.7566 8.99063V3H24.0066V9H21.0066V3H17.1628V9H9V13.5H11.6128C12.4284 13.5 12.9816 13.575 13.2628 13.7156C13.5245 13.8276 13.7397 14.0262 13.8722 14.2781C13.9941 14.5125 14.0503 15.0656 14.0503 15.9188V32.1562C14.0503 33 13.9941 33.5437 13.8722 33.7875C13.7503 34.0312 13.6847 34.2469 13.3941 34.3781C13.1034 34.5094 13.0941 34.5 12.2878 34.5H9.81281L9 39H17.1562V45H21V39H24V45H27.75V38.9625C30.1875 38.8406 31.9219 38.5219 33.3187 37.9969C35.1281 37.3219 36.5156 36.3375 37.5094 35.0437C38.5031 33.75 38.8219 31.7719 38.9091 30.2438C38.9719 28.8844 38.9062 27.1313 38.4816 26.175ZM21 14.0625H24V21H21V14.0625ZM21 33.9375V25.5H24V33.9375H21ZM27.75 14.4281C28.3125 14.6625 28.6781 15.1313 29.0437 15.6188C29.4469 16.1531 29.6531 16.8656 29.6531 17.625C29.6531 18.3562 29.3812 18.9844 28.95 19.5469C28.5937 20.0063 28.3125 20.325 27.75 20.5875V14.4281ZM30.45 31.9313C29.7187 32.5781 29.2969 32.8781 28.3781 33.225C28.1726 33.2973 27.9629 33.3568 27.75 33.4031V25.6406C28.1167 25.6949 28.4736 25.8023 28.8094 25.9594C29.5406 26.2687 30.2344 26.6063 30.6656 27.1969C31.1438 27.8753 31.4053 28.6826 31.4156 29.5125C31.4128 30.5344 31.1503 31.3125 30.4472 31.9313H30.45Z" fill="white"/>
</svg>
