<svg width="48" height="48" viewBox="0 0 48 48" fill="none" xmlns="http://www.w3.org/2000/svg">
<path d="M9.75 19.5C12.6495 19.5 15 17.1495 15 14.25C15 11.3505 12.6495 9 9.75 9C6.85051 9 4.5 11.3505 4.5 14.25C4.5 17.1495 6.85051 19.5 9.75 19.5Z" stroke="white" stroke-width="3" stroke-linecap="round" stroke-linejoin="round"/>
<path d="M9.75 39C12.6495 39 15 36.6495 15 33.75C15 30.8505 12.6495 28.5 9.75 28.5C6.85051 28.5 4.5 30.8505 4.5 33.75C4.5 36.6495 6.85051 39 9.75 39Z" stroke="white" stroke-width="3" stroke-linecap="round" stroke-linejoin="round"/>
<path d="M14.7188 16.4062L13.6875 17.8125L17.1562 19.2188C17.1562 19.2188 17.4806 18.6169 17.8125 18.2812L14.7188 16.4062Z" stroke="white" stroke-width="3" stroke-miterlimit="10" stroke-linecap="square"/>
<path d="M14.4535 31.3528L43.125 15.1875C42.8907 14.5594 40.5 14.0625 37.125 14.8125C34.395 15.4191 25.7663 17.536 22.2038 20.0672C19.2985 22.1306 21.2813 25.5 18 27.9375C15.5991 29.7188 13.8347 30.0769 13.8347 30.0769L14.4535 31.3528ZM32.2941 26.085L27.6563 28.7503C28.9903 29.3822 33.8007 31.8694 38.625 32.1563C40.0238 32.2397 41.4375 32.1928 42.2813 31.5938L32.2941 26.085Z" stroke="white" stroke-width="3" stroke-miterlimit="10" stroke-linecap="round"/>
<path d="M24 25.5C25.6569 25.5 27 24.1569 27 22.5C27 20.8431 25.6569 19.5 24 19.5C22.3431 19.5 21 20.8431 21 22.5C21 24.1569 22.3431 25.5 24 25.5Z" stroke="white" stroke-width="3" stroke-miterlimit="10"/>
</svg>
