<svg width="48" height="48" viewBox="0 0 48 48" fill="none" xmlns="http://www.w3.org/2000/svg">
<path d="M42 6H6C4.34315 6 3 7.34315 3 9V33C3 34.6569 4.34315 36 6 36H42C43.6569 36 45 34.6569 45 33V9C45 7.34315 43.6569 6 42 6Z" stroke="white" stroke-width="3" stroke-linejoin="round"/>
<path d="M28.5 42L27.75 36H20.25L19.5 42H28.5Z" fill="white" stroke="white" stroke-width="3" stroke-linecap="round" stroke-linejoin="round"/>
<path d="M34.5 42H13.5" stroke="white" stroke-width="3" stroke-linecap="round" stroke-linejoin="round"/>
<path d="M3 28.5V33C3.00223 33.795 3.31901 34.5567 3.88114 35.1189C4.44327 35.681 5.20504 35.9978 6 36H42C42.795 35.9978 43.5567 35.681 44.1189 35.1189C44.681 34.5567 44.9978 33.795 45 33V28.5H3ZM24 34.5C23.7033 34.5 23.4133 34.412 23.1666 34.2472C22.92 34.0824 22.7277 33.8481 22.6142 33.574C22.5006 33.2999 22.4709 32.9983 22.5288 32.7074C22.5867 32.4164 22.7296 32.1491 22.9393 31.9393C23.1491 31.7296 23.4164 31.5867 23.7074 31.5288C23.9983 31.4709 24.2999 31.5006 24.574 31.6142C24.8481 31.7277 25.0824 31.92 25.2472 32.1666C25.412 32.4133 25.5 32.7033 25.5 33C25.5 33.3978 25.342 33.7794 25.0607 34.0607C24.7794 34.342 24.3978 34.5 24 34.5Z" fill="white"/>
</svg>
