<svg width="48" height="48" viewBox="0 0 48 48" fill="none" xmlns="http://www.w3.org/2000/svg">
<path d="M43.5 24C43.5 13.2309 34.7691 4.5 24 4.5C13.2309 4.5 4.5 13.2309 4.5 24C4.5 34.7691 13.2309 43.5 24 43.5C34.7691 43.5 43.5 34.7691 43.5 24Z" stroke="white" stroke-width="3" stroke-miterlimit="10"/>
<path d="M41.7721 16.1381C40.2665 16.1475 40.4146 18.9253 38.5387 17.6147C37.8421 17.1291 37.4137 16.4231 36.539 16.2085C35.775 16.021 34.9921 16.216 34.2375 16.3463C33.3796 16.4944 32.3625 16.561 31.7118 17.2106C31.0828 17.836 30.75 18.675 30.0806 19.3041C28.7859 20.5228 28.2393 21.8531 29.0775 23.5763C29.8837 25.2328 31.5703 26.1319 33.39 26.0138C35.1778 25.8947 37.035 24.8578 36.9834 27.4556C36.9646 28.3744 37.1568 29.0119 37.439 29.866C37.7006 30.6535 37.6828 31.4166 37.7428 32.2294C37.8534 33.7481 38.1328 35.4506 38.8865 36.7922L40.2928 34.8085C40.4662 34.5628 40.829 34.2188 40.9153 33.9291C41.0681 33.4163 40.7671 32.535 40.7325 31.9603C40.6978 31.3856 40.7146 30.8035 40.6265 30.2288C40.5028 29.4235 40.0265 28.6688 39.9609 27.8728C39.84 26.3906 40.1109 25.2075 38.969 23.9681C37.8665 22.7728 36.2503 22.486 34.7062 22.7288C33.9281 22.8506 30.7959 23.3513 32.0531 21.5728C32.3015 21.2231 32.7356 20.9363 33.015 20.6035C33.2578 20.3138 33.4687 19.7813 33.7537 19.5553C34.0387 19.3294 35.3475 19.0697 35.7225 19.185C36.0975 19.3003 36.4884 19.8413 36.8137 20.0813C37.4148 20.534 38.1162 20.835 38.8584 20.9588C40.139 21.1463 42.8165 20.4019 42.7959 18.7594C42.7921 17.9719 42.0609 16.875 41.7721 16.1381ZM26.9484 29.6531C26.4487 27.5494 23.5903 26.8463 22.049 25.7053C21.1631 25.0491 20.3746 24.0356 19.2112 23.9531C18.675 23.9147 18.2259 24.031 17.6943 23.8931C17.2068 23.7675 16.8243 23.505 16.305 23.5735C15.3346 23.701 14.7225 24.7378 13.68 24.5972C12.6909 24.4641 11.6718 23.3072 11.4468 22.365C11.1581 21.1538 12.1162 20.761 13.1428 20.6531C13.5712 20.6081 14.0521 20.5594 14.4637 20.716C15.0056 20.9175 15.2615 21.4481 15.7481 21.7163C16.6603 22.216 16.845 21.4172 16.7053 20.6072C16.4962 19.3941 16.2525 18.8991 17.3343 18.0647C18.0843 17.4891 18.7256 17.0728 18.6056 16.0388C18.5343 15.4313 18.2015 15.1566 18.5118 14.5519C18.7471 14.0916 19.3931 13.6763 19.814 13.4016C20.9006 12.6928 24.4687 12.7453 23.0109 10.7616C22.5825 10.1794 21.7921 9.13877 21.0421 8.99627C20.1046 8.81908 19.6884 9.86533 19.035 10.3266C18.36 10.8038 17.0456 11.3456 16.3696 10.6078C15.4603 9.61502 16.9725 9.28877 17.3071 8.59596C17.6418 7.90314 16.5318 6.59346 15.9375 6.26158L13.1428 9.39564C13.0625 9.92051 13.0904 10.4563 13.2249 10.9699C13.3594 11.4836 13.5975 11.9643 13.9246 12.3825C14.4806 13.0978 15.3656 13.3275 15.4059 14.3044C15.4453 15.2419 15.299 15.7219 14.6859 16.381C14.4206 16.6622 14.2331 17.0616 13.9631 17.325C13.6321 17.6466 13.755 17.5481 13.2384 17.6363C12.2671 17.8003 11.4403 18.0535 10.5018 18.3122C8.93808 18.7444 8.7937 16.1897 8.0812 15.1875L5.73745 17.0803C5.71214 17.3906 6.12183 17.9616 6.23339 18.2991C6.8737 20.2275 8.16558 21.7191 8.99995 23.5641C9.87839 25.5178 12.2371 24.976 13.2787 26.6878C14.2031 28.2066 13.2159 30.1294 13.9078 31.7194C14.4103 32.8735 15.5953 33.1256 16.4128 33.9694C17.2481 34.8216 17.2303 35.9878 17.3578 37.0969C17.5016 38.4014 17.7349 39.6944 18.0562 40.9669C18.1696 41.4066 18.2737 41.9878 18.5746 42.3506C18.7809 42.6 19.4887 42.8147 19.2028 42.8972C19.6021 42.9628 20.3137 43.336 20.6465 43.0622C21.0853 42.7022 20.9681 41.5941 21.044 41.0935C21.2718 39.6028 22.0181 38.145 23.025 37.0294C24.0196 35.9288 25.3828 35.1835 26.2228 33.9356C27.0412 32.7188 27.2878 31.0772 26.9484 29.6531ZM23.8181 32.1206C23.2556 33.1247 22.0031 33.7969 21.1978 34.5947C20.9793 34.8113 20.5143 35.5613 20.2406 35.3991C20.0446 35.2828 19.9781 34.3097 19.9059 34.0866C19.5335 32.963 18.8225 31.9822 17.8706 31.2788C17.5771 31.0566 16.8496 30.7678 16.6818 30.4631C16.4943 30.1322 16.6631 29.3513 16.6696 28.9913C16.68 28.4663 16.4409 27.5935 16.5703 27.1163C16.7203 26.566 16.4315 26.8978 16.9237 26.7891C17.1834 26.731 18.2559 26.9194 18.5793 26.9869C19.0931 27.0938 19.3762 27.4135 19.7812 27.7369C20.8462 28.591 22.019 29.2519 23.2125 29.9063C24.1368 30.4181 24.4087 31.066 23.8181 32.1206ZM17.2931 6.2897C17.7375 6.72377 18.1556 7.23752 18.8184 7.28064C19.4456 7.32283 20.0371 6.98346 20.5846 7.41002C21.1921 7.87877 21.63 8.47221 22.4362 8.61845C23.2162 8.76002 24.0421 8.30439 24.2353 7.50658C24.4228 6.74627 24.0187 5.91939 23.9943 5.15627C23.9943 5.05033 24.0515 4.57971 23.9784 4.50002C23.924 4.44002 23.4703 4.50752 23.4009 4.50939C22.8928 4.52439 22.3859 4.55939 21.8803 4.61439C20.037 4.81391 18.2318 5.27642 16.5196 5.98783C16.7475 6.14533 17.0334 6.20814 17.2931 6.2897ZM33.4125 11.5566C34.2084 11.5566 35.0165 11.2003 34.7596 10.2797C34.544 9.50814 34.1765 8.67096 33.2821 9.0872C32.7131 9.35158 31.9068 10.0247 31.8403 10.6922C31.7643 11.4497 32.8818 11.5566 33.4125 11.5566ZM32.7768 15.585C33.5896 16.0716 34.7953 15.8428 35.4084 15.1481C35.8875 14.6044 36.1696 13.6603 37.0312 13.6613C37.4105 13.6605 37.7749 13.809 38.0456 14.0747C38.4018 14.4431 38.3315 14.7891 38.4075 15.2503C38.5771 16.2863 39.6881 15.3094 39.9778 14.9081C40.1653 14.6466 40.4193 14.2585 40.334 13.9181C40.2553 13.6003 39.884 13.2619 39.719 12.9703C39.2371 12.1266 38.8406 11.145 38.1187 10.4635C37.424 9.80721 36.57 9.88314 35.9109 10.5647C35.3709 11.1272 34.7437 11.5725 34.3743 12.2569C34.1137 12.7378 33.8203 12.9675 33.2924 13.0922C33.0018 13.1606 32.67 13.186 32.4262 13.381C31.7475 13.9153 32.1337 15.1988 32.7768 15.585Z" fill="white"/>
</svg>
