<svg width="48" height="48" viewBox="0 0 48 48" fill="none" xmlns="http://www.w3.org/2000/svg">
<path d="M30.1875 39C30.1875 42.3141 28.2516 45 24.9375 45H12.5625C9.24844 45 7.3125 42.3141 7.3125 39M31.5 31.5C33.1566 31.5 34.5 33.1791 34.5 35.25C34.5 37.3209 33.1566 39 31.5 39H6C4.34344 39 3 37.3209 3 35.25C3 33.1791 4.34344 31.5 6 31.5" stroke="white" stroke-width="3" stroke-miterlimit="10" stroke-linecap="round"/>
<path d="M6 25.875V25.8544C6 20.6981 10.2188 18 15.375 18H22.125C27.2812 18 31.5 20.7188 31.5 25.875V25.8544M22.5938 10.5L23.2913 16.4972M32.25 31.5H16.8103C16.6117 31.5001 16.4212 31.579 16.2806 31.7194L13.7653 34.2347C13.7305 34.2696 13.6891 34.2972 13.6436 34.3161C13.5981 34.335 13.5493 34.3447 13.5 34.3447C13.4507 34.3447 13.4019 34.335 13.3564 34.3161C13.3109 34.2972 13.2695 34.2696 13.2347 34.2347L10.7194 31.7194C10.5788 31.579 10.3883 31.5001 10.1897 31.5H5.25C4.65326 31.5 4.08097 31.2629 3.65901 30.841C3.23705 30.419 3 29.8467 3 29.25C3 28.6533 3.23705 28.081 3.65901 27.659C4.08097 27.2371 4.65326 27 5.25 27H32.25C32.8467 27 33.419 27.2371 33.841 27.659C34.2629 28.081 34.5 28.6533 34.5 29.25C34.5 29.8467 34.2629 30.419 33.841 30.841C33.419 31.2629 32.8467 31.5 32.25 31.5Z" stroke="white" stroke-width="3" stroke-miterlimit="10" stroke-linecap="round"/>
<path d="M24 45H37.0603C37.8172 45 38.546 44.7139 39.1008 44.1991C39.6556 43.6843 39.9953 42.9788 40.0519 42.2241L43.4062 10.5" stroke="white" stroke-width="3" stroke-miterlimit="10" stroke-linecap="round"/>
<path d="M34.5 10.5L36 4.5L40.4062 3" stroke="white" stroke-width="3" stroke-linecap="round" stroke-linejoin="round"/>
<path d="M21 10.5H45" stroke="white" stroke-width="3" stroke-miterlimit="10" stroke-linecap="round"/>
</svg>
