<svg width="48" height="48" viewBox="0 0 48 48" fill="none" xmlns="http://www.w3.org/2000/svg">
<path d="M43.306 24.4734C43.1185 24.0272 42.6769 23.7394 42.2119 23.5837L24.6638 16.6012C24.2312 16.4663 23.7679 16.4663 23.3353 16.6012L5.80408 23.5875C5.33533 23.7337 4.88252 24.0347 4.69689 24.4809C4.51127 24.9272 4.42127 25.3594 4.60314 25.8947L8.96533 37.065C9.02093 37.2023 9.11871 37.3185 9.24458 37.3967C9.37044 37.4748 9.51788 37.511 9.66564 37.5C12.1678 37.3425 14.3822 36.0722 16.0763 34.4531C16.2094 34.328 16.3853 34.2584 16.568 34.2584C16.7507 34.2584 16.9265 34.328 17.0597 34.4531C18.871 36.1875 21.2813 37.5 24 37.5C26.7188 37.5 29.115 36.1875 30.9263 34.4494C31.0596 34.3242 31.2356 34.2545 31.4185 34.2545C31.6013 34.2545 31.7773 34.3242 31.9106 34.4494C33.6047 36.0694 35.8191 37.3425 38.3213 37.5C38.4686 37.5112 38.6156 37.4754 38.7413 37.3977C38.8669 37.3201 38.9648 37.2046 39.0206 37.0678L43.3988 25.8966C43.5844 25.4484 43.4916 24.9206 43.306 24.4734Z" stroke="white" stroke-width="3" stroke-miterlimit="10"/>
<path d="M39 44.3569C39 44.2418 38.969 44.1289 38.9102 44.0299C38.8515 43.9309 38.7672 43.8496 38.6663 43.7944C36.1275 42.4303 33.8128 40.3425 32.7947 39.2944C32.6434 39.1358 32.4416 39.0349 32.2239 39.009C32.0063 38.9832 31.7864 39.034 31.6022 39.1528C26.8838 42.1922 21.1388 42.1941 16.4194 39.1575C16.2336 39.0375 16.0116 38.9865 15.792 39.0132C15.5724 39.0399 15.3691 39.1427 15.2175 39.3038C14.2078 40.3613 11.9184 42.4256 9.36469 43.7803C9.26338 43.8316 9.17676 43.9079 9.11297 44.0018C9.04918 44.0958 9.01031 44.2044 9.00001 44.3175C8.99239 44.4139 9.00703 44.5107 9.04278 44.6005C9.07853 44.6903 9.13444 44.7707 9.20619 44.8355C9.27794 44.9003 9.36362 44.9477 9.45661 44.9741C9.5496 45.0005 9.64742 45.0052 9.74251 44.9878C11.6972 44.596 13.5863 43.7053 15.3863 42.7538C15.5017 42.693 15.6301 42.6607 15.7606 42.6598C15.8911 42.6588 16.0199 42.6891 16.1363 42.7481C18.574 43.9885 21.2703 44.6352 24.0054 44.6355C26.7405 44.6359 29.437 43.9898 31.875 42.75C31.9927 42.6904 32.123 42.6598 32.2549 42.6607C32.3868 42.6617 32.5166 42.6943 32.6334 42.7556C34.4241 43.6931 36.3103 44.5922 38.2584 44.9869C38.3502 45.004 38.4446 45.0005 38.5348 44.9766C38.6251 44.9528 38.7089 44.9092 38.7802 44.849C38.8515 44.7888 38.9085 44.7135 38.9472 44.6286C38.9859 44.5436 39.0052 44.4511 39.0038 44.3578L39 44.3569Z" fill="white"/>
<path d="M30 9V6.75C29.9983 6.1538 29.7607 5.5825 29.3391 5.16092C28.9175 4.73934 28.3462 4.50173 27.75 4.5H20.25C19.6538 4.50173 19.0825 4.73934 18.6609 5.16092C18.2393 5.5825 18.0017 6.1538 18 6.75V9M39 21.8438V13.5C38.9965 12.3076 38.5213 11.165 37.6782 10.3218C36.835 9.47868 35.6924 9.00346 34.5 9H13.5C12.3076 9.00346 11.165 9.47868 10.3218 10.3218C9.47868 11.165 9.00346 12.3076 9 13.5V22.125M24 17.2125V37.1672" stroke="white" stroke-width="3" stroke-linecap="round" stroke-linejoin="round"/>
</svg>
