<svg width="48" height="48" viewBox="0 0 48 48" fill="none" xmlns="http://www.w3.org/2000/svg">
<path d="M40.875 9H7.125C5.67525 9 4.5 10.1753 4.5 11.625V36.375C4.5 37.8247 5.67525 39 7.125 39H40.875C42.3247 39 43.5 37.8247 43.5 36.375V11.625C43.5 10.1753 42.3247 9 40.875 9Z" stroke="white" stroke-width="3" stroke-linejoin="round"/>
<path d="M40.875 31.5H38.625C37.1753 31.5 36 32.6753 36 34.125V36.375C36 37.8247 37.1753 39 38.625 39H40.875C42.3247 39 43.5 37.8247 43.5 36.375V34.125C43.5 32.6753 42.3247 31.5 40.875 31.5Z" stroke="white" stroke-width="3" stroke-linejoin="round"/>
<path d="M40.875 24H38.625C37.1753 24 36 25.1753 36 26.625V28.875C36 30.3247 37.1753 31.5 38.625 31.5H40.875C42.3247 31.5 43.5 30.3247 43.5 28.875V26.625C43.5 25.1753 42.3247 24 40.875 24Z" stroke="white" stroke-width="3" stroke-linejoin="round"/>
<path d="M40.875 16.5H38.625C37.1753 16.5 36 17.6753 36 19.125V21.375C36 22.8247 37.1753 24 38.625 24H40.875C42.3247 24 43.5 22.8247 43.5 21.375V19.125C43.5 17.6753 42.3247 16.5 40.875 16.5Z" stroke="white" stroke-width="3" stroke-linejoin="round"/>
<path d="M40.875 9H38.625C37.1753 9 36 10.1753 36 11.625V13.875C36 15.3247 37.1753 16.5 38.625 16.5H40.875C42.3247 16.5 43.5 15.3247 43.5 13.875V11.625C43.5 10.1753 42.3247 9 40.875 9Z" stroke="white" stroke-width="3" stroke-linejoin="round"/>
<path d="M9.375 31.5H7.125C5.67525 31.5 4.5 32.6753 4.5 34.125V36.375C4.5 37.8247 5.67525 39 7.125 39H9.375C10.8247 39 12 37.8247 12 36.375V34.125C12 32.6753 10.8247 31.5 9.375 31.5Z" stroke="white" stroke-width="3" stroke-linejoin="round"/>
<path d="M9.375 24H7.125C5.67525 24 4.5 25.1753 4.5 26.625V28.875C4.5 30.3247 5.67525 31.5 7.125 31.5H9.375C10.8247 31.5 12 30.3247 12 28.875V26.625C12 25.1753 10.8247 24 9.375 24Z" stroke="white" stroke-width="3" stroke-linejoin="round"/>
<path d="M9.375 16.5H7.125C5.67525 16.5 4.5 17.6753 4.5 19.125V21.375C4.5 22.8247 5.67525 24 7.125 24H9.375C10.8247 24 12 22.8247 12 21.375V19.125C12 17.6753 10.8247 16.5 9.375 16.5Z" stroke="white" stroke-width="3" stroke-linejoin="round"/>
<path d="M9.375 9H7.125C5.67525 9 4.5 10.1753 4.5 11.625V13.875C4.5 15.3247 5.67525 16.5 7.125 16.5H9.375C10.8247 16.5 12 15.3247 12 13.875V11.625C12 10.1753 10.8247 9 9.375 9Z" stroke="white" stroke-width="3" stroke-linejoin="round"/>
<path d="M33.375 9H14.625C13.1753 9 12 10.1753 12 11.625V21.375C12 22.8247 13.1753 24 14.625 24H33.375C34.8247 24 36 22.8247 36 21.375V11.625C36 10.1753 34.8247 9 33.375 9Z" stroke="white" stroke-width="3" stroke-linejoin="round"/>
<path d="M33.375 24H14.625C13.1753 24 12 25.1753 12 26.625V36.375C12 37.8247 13.1753 39 14.625 39H33.375C34.8247 39 36 37.8247 36 36.375V26.625C36 25.1753 34.8247 24 33.375 24Z" stroke="white" stroke-width="3" stroke-linejoin="round"/>
</svg>
