<svg width="48" height="48" viewBox="0 0 48 48" fill="none" xmlns="http://www.w3.org/2000/svg">
<path d="M22.5 14.25C17.7459 15.3947 13.6734 19.1541 11.2219 21.1341C10.5146 20.4788 9.76925 19.8658 8.98969 19.2984C5.58094 16.8084 1.5 16.5 1.5 16.5C1.5 16.5 2.56594 21.3309 5.3775 23.9841C2.56594 26.6381 1.5 31.4691 1.5 31.4691C1.5 31.4691 5.58094 31.1606 8.98969 28.6706C9.76265 28.1081 10.5018 27.5005 11.2031 26.8509C13.65 28.8328 17.7413 32.6016 22.5 33.75L21 39C24.6966 38.3747 28.3931 35.6709 29.88 34.4766C42 33.9375 46.5 26.1562 46.5 24C46.5 21.9375 42 14.0625 29.9166 13.5253C28.455 12.3544 24.7275 9.63 21 9L22.5 14.25Z" stroke="white" stroke-width="3" stroke-linejoin="round"/>
<path d="M39 23.9991C39.8284 23.9991 40.5 23.3275 40.5 22.4991C40.5 21.6706 39.8284 20.9991 39 20.9991C38.1716 20.9991 37.5 21.6706 37.5 22.4991C37.5 23.3275 38.1716 23.9991 39 23.9991Z" fill="white"/>
<path d="M35.4722 33.375C33.8194 30.5271 32.9489 27.2928 32.9489 24C32.9489 20.7072 33.8194 17.4729 35.4722 14.625" stroke="white" stroke-width="3" stroke-miterlimit="20" stroke-linecap="round"/>
</svg>
