<svg width="48" height="48" viewBox="0 0 48 48" fill="none" xmlns="http://www.w3.org/2000/svg">
<path d="M24 42C33.9411 42 42 33.9411 42 24C42 14.0589 33.9411 6 24 6C14.0589 6 6 14.0589 6 24C6 33.9411 14.0589 42 24 42Z" stroke="white" stroke-width="3" stroke-miterlimit="10" stroke-linecap="round"/>
<path d="M24 16.4203L16.8666 22.4043M24 16.4203L31.1334 22.4043M24 16.4203V11.0231M16.8666 22.4043L18.75 30M16.8666 22.4043L11.91 20.3043M18.75 30H29.25M18.75 30L16.125 34.5M29.25 30L31.1334 22.4043M29.25 30L31.875 34.5L29.25 41.1562M31.1334 22.4043L36.09 20.3043M36.09 20.3043L38.5069 13.4362M36.09 20.3043L41.9062 25.3097M11.91 20.3043L9.49313 13.4362M11.91 20.3043L6.09375 25.3097M24 11.0231L30 7.0256M24 11.0231L18 7.02466M38.5069 34.5H32.0625M16.125 34.5L18.7847 41.2031M16.125 34.5H9.52781" stroke="white" stroke-width="3" stroke-linecap="round" stroke-linejoin="round"/>
</svg>
