<svg width="48" height="48" viewBox="0 0 48 48" fill="none" xmlns="http://www.w3.org/2000/svg">
<path d="M24 9.75V15M24 9.75C24 8.71165 24.3079 7.69662 24.8848 6.83326C25.4617 5.9699 26.2816 5.29699 27.2409 4.89963C28.2002 4.50227 29.2558 4.39831 30.2742 4.60088C31.2926 4.80345 32.2281 5.30347 32.9623 6.03769C33.6965 6.77192 34.1966 7.70738 34.3991 8.72578C34.6017 9.74418 34.4977 10.7998 34.1004 11.7591C33.703 12.7184 33.0301 13.5383 32.1667 14.1152C31.3034 14.6921 30.2884 15 29.25 15H24M24 9.75C24 8.71165 23.6921 7.69662 23.1152 6.83326C22.5383 5.9699 21.7184 5.29699 20.7591 4.89963C19.7998 4.50227 18.7442 4.39831 17.7258 4.60088C16.7074 4.80345 15.7719 5.30347 15.0377 6.03769C14.3035 6.77192 13.8035 7.70738 13.6009 8.72578C13.3983 9.74418 13.5023 10.7998 13.8996 11.7591C14.297 12.7184 14.9699 13.5383 15.8333 14.1152C16.6966 14.6921 17.7117 15 18.75 15H24" stroke="white" stroke-width="3" stroke-miterlimit="10" stroke-linecap="round"/>
<path d="M39 15H9C7.34315 15 6 16.3431 6 18V22.5C6 24.1569 7.34315 25.5 9 25.5H39C40.6569 25.5 42 24.1569 42 22.5V18C42 16.3431 40.6569 15 39 15Z" stroke="white" stroke-width="3" stroke-linecap="round" stroke-linejoin="round"/>
<path d="M39 25.5V39C39 40.1935 38.5259 41.3381 37.682 42.182C36.8381 43.0259 35.6935 43.5 34.5 43.5H13.5C12.3065 43.5 11.1619 43.0259 10.318 42.182C9.47411 41.3381 9 40.1935 9 39V25.5M24 15V43.5" stroke="white" stroke-width="3" stroke-linecap="round" stroke-linejoin="round"/>
</svg>
