<svg width="48" height="48" viewBox="0 0 48 48" fill="none" xmlns="http://www.w3.org/2000/svg">
<path d="M21 21.75C21 20.9544 21.3161 20.1913 21.8787 19.6287C22.4413 19.0661 23.2044 18.75 24 18.75C24.7956 18.75 25.5587 19.0661 26.1213 19.6287C26.6839 20.1913 27 20.9544 27 21.75M42 18.75H43.5M42 18.75C42 27.75 40.5 30.75 34.5 30.75C28.5 30.75 27 27.75 27 18.75C27 18.75 28.5 17.25 34.5 17.25C40.5 17.25 42 18.75 42 18.75ZM6 18.75H4.5M6 18.75C6 27.75 7.5 30.75 13.5 30.75C19.5 30.75 21 27.75 21 18.75C21 18.75 19.5 17.25 13.5 17.25C7.5 17.25 6 18.75 6 18.75Z" stroke="white" stroke-width="3" stroke-linecap="round" stroke-linejoin="round"/>
</svg>
