<svg width="48" height="48" viewBox="0 0 48 48" fill="none" xmlns="http://www.w3.org/2000/svg">
<path d="M4.5 24H43.5" stroke="white" stroke-width="3" stroke-linecap="round" stroke-linejoin="round"/>
<path d="M39 13.5C39 12.6716 38.3284 12 37.5 12C36.6716 12 36 12.6716 36 13.5V34.5C36 35.3284 36.6716 36 37.5 36C38.3284 36 39 35.3284 39 34.5V13.5Z" stroke="white" stroke-width="3" stroke-linecap="round" stroke-linejoin="round"/>
<path d="M12 13.5C12 12.6716 11.3284 12 10.5 12C9.67157 12 9 12.6716 9 13.5V34.5C9 35.3284 9.67157 36 10.5 36C11.3284 36 12 35.3284 12 34.5V13.5Z" stroke="white" stroke-width="3" stroke-linecap="round" stroke-linejoin="round"/>
<path d="M4.5 18.75C4.5 18.3358 4.16421 18 3.75 18C3.33579 18 3 18.3358 3 18.75V29.25C3 29.6642 3.33579 30 3.75 30C4.16421 30 4.5 29.6642 4.5 29.25V18.75Z" stroke="white" stroke-width="3" stroke-linecap="round" stroke-linejoin="round"/>
<path d="M45 18.75C45 18.3358 44.6642 18 44.25 18C43.8358 18 43.5 18.3358 43.5 18.75V29.25C43.5 29.6642 43.8358 30 44.25 30C44.6642 30 45 29.6642 45 29.25V18.75Z" stroke="white" stroke-width="3" stroke-linecap="round" stroke-linejoin="round"/>
</svg>
