<svg width="48" height="48" viewBox="0 0 48 48" fill="none" xmlns="http://www.w3.org/2000/svg">
<path d="M17.25 24C18.4926 24 19.5 22.9926 19.5 21.75C19.5 20.5074 18.4926 19.5 17.25 19.5C16.0074 19.5 15 20.5074 15 21.75C15 22.9926 16.0074 24 17.25 24Z" fill="white"/>
<path d="M24.0047 36C19.7466 36 16.1654 33.2316 15.0319 29.4535C15.0002 29.341 14.9952 29.2227 15.0173 29.108C15.0394 28.9933 15.088 28.8854 15.1592 28.7928C15.2304 28.7002 15.3223 28.6255 15.4275 28.5746C15.5326 28.5238 15.6482 28.4983 15.7651 28.5H32.236C32.3528 28.4983 32.4684 28.5238 32.5736 28.5746C32.6788 28.6255 32.7706 28.7002 32.8418 28.7928C32.913 28.8854 32.9616 28.9933 32.9837 29.108C33.0058 29.2227 33.0008 29.341 32.9691 29.4535C31.8451 33.2316 28.2629 36 24.0047 36Z" fill="white"/>
<path d="M30.75 24C31.9926 24 33 22.9926 33 21.75C33 20.5074 31.9926 19.5 30.75 19.5C29.5074 19.5 28.5 20.5074 28.5 21.75C28.5 22.9926 29.5074 24 30.75 24Z" fill="white"/>
<path d="M24 43.5C34.7696 43.5 43.5 34.7696 43.5 24C43.5 13.2304 34.7696 4.5 24 4.5C13.2304 4.5 4.5 13.2304 4.5 24C4.5 34.7696 13.2304 43.5 24 43.5Z" stroke="white" stroke-width="3" stroke-miterlimit="10"/>
</svg>
