<svg width="48" height="48" viewBox="0 0 48 48" fill="none" xmlns="http://www.w3.org/2000/svg">
<path d="M7.5 19.875V42C7.5 42.3978 7.65804 42.7794 7.93934 43.0607C8.22064 43.342 8.60218 43.5 9 43.5H18V30.75C18 30.1533 18.2371 29.581 18.659 29.159C19.081 28.7371 19.6533 28.5 20.25 28.5H27.75C28.3467 28.5 28.919 28.7371 29.341 29.159C29.7629 29.581 30 30.1533 30 30.75V43.5H39C39.3978 43.5 39.7794 43.342 40.0607 43.0607C40.342 42.7794 40.5 42.3978 40.5 42V19.875" stroke="white" stroke-width="3" stroke-linecap="round" stroke-linejoin="round"/>
<path d="M45 24L25.0209 4.87501C24.5522 4.38001 23.4563 4.37439 22.9791 4.87501L3 24M37.5 16.7813V6.00001H33V12.4688" stroke="white" stroke-width="3" stroke-linecap="round" stroke-linejoin="round"/>
</svg>
