<svg width="48" height="48" viewBox="0 0 48 48" fill="none" xmlns="http://www.w3.org/2000/svg">
<path d="M33 24L24 45L18.1875 31.4062" stroke="white" stroke-width="3" stroke-linecap="round" stroke-linejoin="round"/>
<path d="M28.0706 20.9512C27.3506 22.4766 25.7981 23.625 24 23.625C22.7719 23.625 21.4687 23.1563 20.8472 22.71C20.2753 22.3003 19.5 22.5 19.5 23.4375V29.25C19.4983 29.8462 19.2607 30.4175 18.8391 30.8391C18.4175 31.2607 17.8462 31.4983 17.25 31.5C16.6538 31.4983 16.0825 31.2607 15.6609 30.8391C15.2393 30.4175 15.0017 29.8462 15 29.25V24H14.8125C11.4984 24 9 21.3141 9 18C9 16.4087 9.63214 14.8826 10.7574 13.7574C11.8826 12.6321 13.4087 12 15 12H15.75V11.25C15.75 9.06196 16.6192 6.96354 18.1664 5.41637C19.7135 3.86919 21.812 3 24 3C26.188 3 28.2865 3.86919 29.8336 5.41637C31.3808 6.96354 32.25 9.06196 32.25 11.25V12H33C34.5913 12 36.1174 12.6321 37.2426 13.7574C38.3679 14.8826 39 16.4087 39 18C39 19.5913 38.3679 21.1174 37.2426 22.2426C36.1174 23.3679 34.5913 24 33 24C30.9581 24 29.0625 22.7813 28.0697 20.9522L28.0706 20.9512Z" stroke="white" stroke-width="3" stroke-linecap="round" stroke-linejoin="round"/>
</svg>
