<svg width="48" height="48" viewBox="0 0 48 48" fill="none" xmlns="http://www.w3.org/2000/svg">
<path d="M34.5 3H13.5C11.0147 3 9 5.01472 9 7.5V40.5C9 42.9853 11.0147 45 13.5 45H34.5C36.9853 45 39 42.9853 39 40.5V7.5C39 5.01472 36.9853 3 34.5 3Z" stroke="white" stroke-width="3" stroke-linejoin="round"/>
<path d="M19.5 7.5H28.5" stroke="white" stroke-width="3" stroke-linecap="round" stroke-linejoin="round"/>
<path d="M31.2637 26.6728C30.9099 26.2959 30.4814 25.9969 30.0055 25.795C29.5296 25.593 29.0169 25.4926 28.5 25.5C27.4125 25.5 26.429 25.9135 25.7306 26.6653C25.0321 27.4172 24.6806 28.4578 24.7612 29.5716C24.9215 31.7728 26.5987 33.5625 28.5 33.5625C30.4012 33.5625 32.0756 31.7728 32.2378 29.5735C32.3203 28.4691 31.9734 27.4388 31.2637 26.6728ZM34.8459 42H22.154C21.9888 42.0027 21.825 41.969 21.6742 41.9015C21.5234 41.8339 21.3892 41.7341 21.2812 41.6091C21.1641 41.4688 21.08 41.3039 21.0352 41.1267C20.9904 40.9495 20.9861 40.7645 21.0225 40.5853C21.3271 38.9391 22.2768 37.5563 23.7693 36.586C25.095 35.7244 26.775 35.25 28.5 35.25C30.225 35.25 31.905 35.7244 33.2306 36.586C34.7231 37.5563 35.6728 38.9391 35.9775 40.5853C36.0139 40.7645 36.0095 40.9495 35.9647 41.1267C35.9199 41.3039 35.8358 41.4688 35.7187 41.6091C35.6107 41.7341 35.4765 41.8339 35.3257 41.9015C35.1749 41.969 35.0111 42.0027 34.8459 42Z" fill="white"/>
</svg>
