<svg width="48" height="48" viewBox="0 0 48 48" fill="none" xmlns="http://www.w3.org/2000/svg">
<path d="M40.8046 4.5H29.2828C28.9245 4.49974 28.5807 4.6413 28.3265 4.89375L5.29214 27.9281C4.78778 28.435 4.50464 29.1209 4.50464 29.8359C4.50464 30.551 4.78778 31.2369 5.29214 31.7438L16.2609 42.7125C16.7677 43.2169 17.4537 43.5 18.1687 43.5C18.8837 43.5 19.5697 43.2169 20.0765 42.7125L43.1015 19.6875C43.354 19.4333 43.4955 19.0895 43.4953 18.7313V7.2C43.497 6.84574 43.4287 6.49463 43.2942 6.16688C43.1597 5.83913 42.9617 5.54122 42.7116 5.29027C42.4616 5.03933 42.1643 4.84032 41.8371 4.7047C41.5098 4.56907 41.1589 4.4995 40.8046 4.5Z" stroke="white" stroke-width="3" stroke-linecap="round" stroke-linejoin="round"/>
<path d="M36 15C35.4067 15 34.8266 14.8241 34.3333 14.4944C33.8399 14.1648 33.4554 13.6962 33.2284 13.1481C33.0013 12.5999 32.9419 11.9967 33.0576 11.4147C33.1734 10.8328 33.4591 10.2982 33.8787 9.87868C34.2982 9.45912 34.8328 9.1734 35.4147 9.05765C35.9967 8.94189 36.5999 9.0013 37.1481 9.22836C37.6962 9.45543 38.1648 9.83994 38.4944 10.3333C38.8241 10.8266 39 11.4067 39 12C39 12.7957 38.6839 13.5587 38.1213 14.1213C37.5587 14.6839 36.7957 15 36 15Z" fill="white"/>
</svg>
