<svg width="48" height="48" viewBox="0 0 48 48" fill="none" xmlns="http://www.w3.org/2000/svg">
<path d="M40.5 12H7.5C5.01472 12 3 14.0147 3 16.5V37.5C3 39.9853 5.01472 42 7.5 42H40.5C42.9853 42 45 39.9853 45 37.5V16.5C45 14.0147 42.9853 12 40.5 12Z" stroke="white" stroke-width="3" stroke-linejoin="round"/>
<path d="M13.5 12V9C13.5 8.20435 13.8161 7.44129 14.3787 6.87868C14.9413 6.31607 15.7044 6 16.5 6H31.5C32.2956 6 33.0587 6.31607 33.6213 6.87868C34.1839 7.44129 34.5 8.20435 34.5 9V12M45 22.5H3M30 22.5V24.75C30 24.9489 29.921 25.1397 29.7803 25.2803C29.6397 25.421 29.4489 25.5 29.25 25.5H18.75C18.5511 25.5 18.3603 25.421 18.2197 25.2803C18.079 25.1397 18 24.9489 18 24.75V22.5" stroke="white" stroke-width="3" stroke-linecap="round" stroke-linejoin="round"/>
</svg>
