<svg width="48" height="48" viewBox="0 0 48 48" fill="none" xmlns="http://www.w3.org/2000/svg">
<path d="M18 20.4375V19.875C18 18.4837 18.9375 17.3437 20.2725 17.0072L36.6403 12.6309C36.9177 12.5567 37.2084 12.5472 37.4901 12.6031C37.7718 12.659 38.0368 12.7789 38.2648 12.9534C38.4928 13.128 38.6777 13.3526 38.8051 13.6099C38.9326 13.8672 38.9993 14.1503 39 14.4375V16.5" stroke="white" stroke-width="3" stroke-linecap="round" stroke-linejoin="round"/>
<path d="M39 27.7444V35.2444C39 36.5485 38.1628 37.6435 36.9375 38.0569L34.875 38.8069C32.4469 39.6244 30 37.83 30 35.2444C29.9944 34.5802 30.2003 33.9315 30.588 33.3921C30.9756 32.8528 31.5249 32.4508 32.1562 32.2444L36.9375 30.5428C38.1628 30.1303 39 29.0485 39 27.7444ZM39 27.7444V5.43752C38.9993 5.29398 38.9657 5.15252 38.9018 5.02403C38.8378 4.89554 38.7452 4.78345 38.6311 4.6964C38.5169 4.60936 38.3843 4.54968 38.2435 4.52197C38.1027 4.49426 37.9573 4.49926 37.8187 4.53658L19.125 9.56252C18.799 9.6546 18.5122 9.85131 18.3089 10.1223C18.1057 10.3934 17.9971 10.7237 18 11.0625V32.25M18 32.25C18 33.5541 17.1628 34.65 15.9375 35.0625L11.0625 36.75C9.76125 37.1888 9 38.3644 9 39.75C9 42.3356 11.4863 44.1141 13.875 43.3125L15.9375 42.5625C17.1628 42.15 18 41.055 18 39.75V32.25Z" stroke="white" stroke-width="3" stroke-linecap="round" stroke-linejoin="round"/>
</svg>
