<svg width="48" height="48" viewBox="0 0 48 48" fill="none" xmlns="http://www.w3.org/2000/svg">
<path d="M42.9131 15.9469C42.5799 15.8158 42.2249 15.749 41.8668 15.75H41.8293C39.9384 15.7781 37.8178 17.5491 36.7049 20.2275C35.3709 23.4319 35.9849 26.7103 38.0868 27.5531C38.4197 27.6842 38.7744 27.751 39.1321 27.75C41.0324 27.75 43.1821 25.9688 44.3043 23.2725C45.629 20.0681 45.0056 16.7897 42.9131 15.9469ZM30.7124 28.4513C28.1062 24.1266 26.9812 22.5 23.9999 22.5C21.0187 22.5 19.8843 24.1369 17.2781 28.4513C15.0468 32.1413 10.5374 32.4487 9.41245 35.5828C9.18422 36.1569 9.0696 36.7698 9.07495 37.3875C9.07495 39.9366 11.0249 42 13.4249 42C16.4062 42 20.4656 39.6197 24.0093 39.6197C27.5531 39.6197 31.5937 42 34.5749 42C36.9749 42 38.9156 39.9375 38.9156 37.3875C38.9177 36.7692 38.7999 36.1563 38.5687 35.5828C37.4437 32.4375 32.9437 32.1413 30.7124 28.4513ZM18.0478 18.375C18.1733 18.3751 18.2987 18.3657 18.4228 18.3469C20.5987 18.0309 21.9571 15.0159 21.464 11.6109C20.9999 8.40094 19.0518 6 17.0146 6C16.8891 5.9999 16.7637 6.0093 16.6396 6.02813C14.4637 6.34406 13.1053 9.35906 13.5984 12.7641C14.0624 15.9647 16.0106 18.375 18.0478 18.375ZM34.3987 12.7641C34.8918 9.35906 33.5334 6.34406 31.3574 6.02813C31.2333 6.0093 31.108 5.9999 30.9824 6C28.9453 6 27.0009 8.40094 26.5359 11.6109C26.0428 15.0159 27.4012 18.0309 29.5771 18.3469C29.7012 18.3657 29.8266 18.3751 29.9521 18.375C31.9893 18.375 33.9374 15.9647 34.3987 12.7641ZM9.91589 27.5531C12.0149 26.7094 12.6281 23.4281 11.2959 20.2275C10.1746 17.5313 8.02683 15.75 6.12933 15.75C5.77158 15.749 5.41689 15.8158 5.08401 15.9469C2.98495 16.7906 2.37183 20.0719 3.70401 23.2725C4.82526 25.9688 6.97308 27.75 8.87058 27.75C9.22832 27.751 9.58301 27.6842 9.91589 27.5531Z" stroke="white" stroke-width="3" stroke-miterlimit="10"/>
</svg>
