<svg width="48" height="48" viewBox="0 0 48 48" fill="none" xmlns="http://www.w3.org/2000/svg">
<path d="M37.9463 11.5388C33.5972 9.76688 29.0335 9 24.0001 9C18.9666 9 14.0532 9.84375 10.0407 11.5013C9.28318 11.8106 8.61005 12.345 9.09661 13.3294C9.4913 14.1291 19.0313 35.1562 22.6557 42.6562C22.7778 42.9096 22.9689 43.1234 23.207 43.273C23.4452 43.4226 23.7207 43.502 24.0019 43.502C24.2832 43.502 24.5587 43.4226 24.7968 43.273C25.035 43.1234 25.2261 42.9096 25.3482 42.6562L38.8529 13.3856C39.1519 12.7387 38.9372 11.9419 37.9463 11.5388Z" stroke="white" stroke-width="3" stroke-miterlimit="10"/>
<path d="M40.9107 7.75125C36.0291 5.82 30.016 4.5 24 4.5C17.9841 4.5 12.061 5.69813 7.07629 7.695C6.63661 7.875 5.81254 8.29031 6.03848 8.98875L6.94598 11.25C7.32098 12.0187 7.75879 12.0187 8.35786 12.0187C8.52567 12.0187 8.76004 11.925 9.04036 11.8144C13.8106 9.96149 18.8826 9.0073 24 9C29.3213 9 34.7729 10.125 38.9625 11.8125C39.2991 11.9437 39.4866 12.0169 39.645 12.0169C40.2619 12.0169 40.6182 12.2222 41.0513 11.2575L41.9672 9C42.1557 8.4375 41.4994 7.98563 40.9107 7.75125Z" stroke="white" stroke-width="3" stroke-miterlimit="10"/>
<path d="M18 21C19.6569 21 21 19.6569 21 18C21 16.3431 19.6569 15 18 15C16.3431 15 15 16.3431 15 18C15 19.6569 16.3431 21 18 21Z" fill="white"/>
<path d="M30 22.5C31.6569 22.5 33 21.1569 33 19.5C33 17.8431 31.6569 16.5 30 16.5C28.3431 16.5 27 17.8431 27 19.5C27 21.1569 28.3431 22.5 30 22.5Z" fill="white"/>
<path d="M24 33C25.6569 33 27 31.6569 27 30C27 28.3431 25.6569 27 24 27C22.3431 27 21 28.3431 21 30C21 31.6569 22.3431 33 24 33Z" fill="white"/>
</svg>
