<svg width="48" height="48" viewBox="0 0 48 48" fill="none" xmlns="http://www.w3.org/2000/svg">
<path d="M38.7806 23.0719H36.1875C36.1378 23.0719 36.0901 23.0521 36.0549 23.017C36.0198 22.9818 36 22.9341 36 22.8844V15.6431C36 14.6769 35.6162 13.7503 34.933 13.0671C34.2497 12.3839 33.3231 12 32.3569 12H25.1156C25.0659 12 25.0182 11.9803 24.983 11.9451C24.9479 11.9099 24.9281 11.8623 24.9281 11.8125V9.2194C24.9281 6.67502 22.9125 4.54502 20.3681 4.50096C19.7517 4.49013 19.1392 4.60218 18.5665 4.83056C17.9938 5.05894 17.4724 5.39909 17.0325 5.83116C16.5927 6.26323 16.2433 6.77856 16.0048 7.34709C15.7662 7.91562 15.6433 8.52597 15.6431 9.14252V11.8125C15.6431 11.8623 15.6234 11.9099 15.5882 11.9451C15.553 11.9803 15.5054 12 15.4556 12H8.21438C7.23017 12.003 6.28713 12.3953 5.59119 13.0912C4.89526 13.7872 4.50297 14.7302 4.5 15.7144V22.3125C4.5 22.3623 4.51975 22.4099 4.55492 22.4451C4.59008 22.4803 4.63777 22.5 4.6875 22.5H7.21031C9.96375 22.5 12.2428 24.8888 12.2812 27.6422C12.3206 30.4425 10.0772 33 7.28531 33H4.6875C4.63777 33 4.59008 33.0198 4.55492 33.0549C4.51975 33.0901 4.5 33.1378 4.5 33.1875V39.7856C4.50297 40.7699 4.89526 41.7129 5.59119 42.4088C6.28713 43.1048 7.23017 43.4971 8.21438 43.5H14.8125C14.8622 43.5 14.9099 43.4803 14.9451 43.4451C14.9802 43.4099 15 43.3623 15 43.3125V41.3503C15 38.5116 17.3203 36.0675 20.1562 36.001C22.9781 35.9353 25.5 37.905 25.5 40.7147V43.3125C25.5 43.3623 25.5198 43.4099 25.5549 43.4451C25.5901 43.4803 25.6378 43.5 25.6875 43.5H32.3569C33.3231 43.5 34.2497 43.1162 34.933 42.433C35.6162 41.7498 36 40.8231 36 39.8569V32.5444C36 32.4947 36.0198 32.447 36.0549 32.4118C36.0901 32.3767 36.1378 32.3569 36.1875 32.3569H38.8575C41.4478 32.3569 43.5 30.2316 43.5 27.6319C43.5 25.0322 41.325 23.0719 38.7806 23.0719Z" stroke="white" stroke-width="3" stroke-linecap="round" stroke-linejoin="round"/>
</svg>
