<svg width="48" height="48" viewBox="0 0 48 48" fill="none" xmlns="http://www.w3.org/2000/svg">
<path d="M5.38973 4.47562L39.93 39.0159C40.5854 39.6714 40.9536 40.5603 40.9536 41.4872C40.9536 42.4141 40.5854 43.303 39.93 43.9584C39.2745 44.6136 38.3856 44.9816 37.4588 44.9816C36.532 44.9816 35.6431 44.6136 34.9875 43.9584L26.55 35.3756C25.9979 34.8149 25.6881 34.0597 25.6875 33.2728V32.7544C25.6876 32.357 25.6088 31.9636 25.4555 31.597C25.3023 31.2304 25.0778 30.8979 24.795 30.6187L23.7057 29.6128C23.3358 29.2716 22.8861 29.0288 22.3979 28.907C21.9097 28.7851 21.3987 28.7879 20.9119 28.9153C20.1443 29.1157 19.3376 29.1118 18.5719 28.9041C17.8062 28.6964 17.1081 28.2921 16.5469 27.7312L8.53785 19.7212C3.7866 14.97 2.03816 7.7953 5.38973 4.47562Z" stroke="white" stroke-width="3" stroke-linejoin="round"/>
<path d="M37.5001 3L30.2579 10.2422C29.7006 10.7994 29.2585 11.4609 28.9569 12.1889C28.6553 12.9169 28.5 13.6973 28.5001 14.4853V15.8784C28.5001 16.0755 28.4613 16.2707 28.3858 16.4528C28.3104 16.6349 28.1998 16.8004 28.0604 16.9397L27.0001 18M30.0001 21L31.0604 19.9397C31.1997 19.8003 31.3651 19.6897 31.5472 19.6142C31.7293 19.5388 31.9245 19.5 32.1216 19.5H33.5147C34.3028 19.5 35.0831 19.3448 35.8112 19.0432C36.5392 18.7416 37.2007 18.2995 37.7579 17.7422L45.0001 10.5M41.2501 6.75L33.7501 14.25M18.7501 34.5L9.4013 43.9012C8.69807 44.6043 7.74442 44.9992 6.75005 44.9992C5.75569 44.9992 4.80203 44.6043 4.0988 43.9012C3.39579 43.198 3.00085 42.2444 3.00085 41.25C3.00085 40.2556 3.39579 39.302 4.0988 38.5988L12.0001 30.75" stroke="white" stroke-width="3" stroke-linecap="round" stroke-linejoin="round"/>
</svg>
