<svg width="48" height="48" viewBox="0 0 48 48" fill="none" xmlns="http://www.w3.org/2000/svg">
<path d="M24.5897 18.0291C23.3586 17.9075 22.1201 18.1694 21.0436 18.7789C19.9672 19.3884 19.1054 20.3158 18.5764 21.434C18.0473 22.5522 17.8768 23.8065 18.0882 25.0254C18.2996 26.2442 18.8826 27.3679 19.7573 28.2427C20.6321 29.1174 21.7558 29.7003 22.9746 29.9117C24.1934 30.1232 25.4478 29.9527 26.566 29.4236C27.6842 28.8946 28.6116 28.0328 29.2211 26.9564C29.8306 25.8799 30.0925 24.6414 29.9709 23.4103C29.8323 22.0303 29.2208 20.7406 28.2401 19.7599C27.2594 18.7792 25.9697 18.1677 24.5897 18.0291ZM39.0366 24C39.0327 24.6522 38.9848 25.3034 38.8931 25.9491L43.1316 29.2734C43.3161 29.4264 43.4405 29.6399 43.4825 29.8759C43.5246 30.1119 43.4816 30.3552 43.3612 30.5625L39.3516 37.5C39.2298 37.7053 39.0394 37.8611 38.8141 37.9398C38.5887 38.0185 38.3428 38.0152 38.1197 37.9303L33.9103 36.2353C33.6782 36.1429 33.4267 36.1095 33.1785 36.1381C32.9303 36.1668 32.6931 36.2565 32.4881 36.3994C31.8457 36.8418 31.1706 37.2348 30.4687 37.575C30.2481 37.6822 30.0572 37.8422 29.913 38.0407C29.7688 38.2392 29.6757 38.4701 29.6419 38.7131L29.0109 43.2028C28.9695 43.4399 28.847 43.6553 28.6644 43.8121C28.4817 43.9689 28.2503 44.0574 28.0097 44.0625H19.9903C19.7536 44.0584 19.5254 43.9738 19.3432 43.8227C19.1611 43.6715 19.0358 43.4628 18.9881 43.2309L18.3581 38.7478C18.3227 38.5021 18.2272 38.269 18.08 38.0691C17.9328 37.8693 17.7385 37.7089 17.5144 37.6022C16.8133 37.2638 16.1405 36.8697 15.5025 36.4237C15.2982 36.2816 15.0618 36.1925 14.8145 36.1646C14.5672 36.1366 14.3168 36.1705 14.0859 36.2634L9.87749 37.9575C9.65447 38.0424 9.40863 38.0459 9.18328 37.9674C8.95793 37.8888 8.76753 37.7333 8.64562 37.5281L4.63593 30.5906C4.51538 30.3834 4.4723 30.14 4.51436 29.904C4.55642 29.6679 4.68089 29.4544 4.86562 29.3016L8.4478 26.4891C8.64406 26.3333 8.7983 26.1309 8.89653 25.9004C8.99476 25.6699 9.03386 25.4185 9.0103 25.1691C8.97655 24.7781 8.95593 24.3881 8.95593 23.9972C8.95593 23.6063 8.97562 23.2219 9.0103 22.8394C9.03129 22.5914 8.99026 22.3422 8.89092 22.114C8.79158 21.8859 8.63705 21.686 8.44124 21.5325L4.86093 18.72C4.6792 18.5663 4.55735 18.3536 4.51673 18.1191C4.4761 17.8846 4.5193 17.6433 4.63874 17.4375L8.64843 10.5C8.7702 10.2947 8.96053 10.1389 9.1859 10.0602C9.41126 9.98149 9.65717 9.98484 9.8803 10.0697L14.0897 11.7647C14.3218 11.8571 14.5732 11.8905 14.8214 11.8619C15.0697 11.8332 15.3069 11.7435 15.5119 11.6006C16.1543 11.1582 16.8294 10.7652 17.5312 10.425C17.7519 10.3177 17.9428 10.1578 18.087 9.95932C18.2312 9.76083 18.3243 9.52988 18.3581 9.28687L18.9891 4.79719C19.0305 4.56008 19.153 4.34472 19.3356 4.18791C19.5182 4.03111 19.7497 3.9426 19.9903 3.9375H28.0097C28.2464 3.94159 28.4746 4.02619 28.6568 4.17734C28.8389 4.3285 28.9642 4.5372 29.0119 4.76906L29.6419 9.25219C29.6772 9.49787 29.7728 9.73101 29.92 9.93088C30.0672 10.1307 30.2615 10.2911 30.4856 10.3978C31.1867 10.7362 31.8594 11.1303 32.4975 11.5763C32.7018 11.7184 32.9382 11.8075 33.1855 11.8354C33.4328 11.8634 33.6832 11.8295 33.9141 11.7366L38.1225 10.0425C38.3455 9.95757 38.5914 9.95407 38.8167 10.0326C39.0421 10.1112 39.2325 10.2667 39.3544 10.4719L43.3641 17.4094C43.4846 17.6166 43.5277 17.86 43.4856 18.096C43.4436 18.3321 43.3191 18.5456 43.1344 18.6984L39.5522 21.5109C39.3551 21.6662 39.1999 21.8683 39.1009 22.0989C39.0018 22.3294 38.962 22.5811 38.985 22.8309C39.0159 23.2191 39.0366 23.6091 39.0366 24Z" stroke="white" stroke-width="3" stroke-linecap="round" stroke-linejoin="round"/>
</svg>
