<svg width="48" height="48" viewBox="0 0 48 48" fill="none" xmlns="http://www.w3.org/2000/svg">
<path d="M31.2478 4.93687C30.8227 6.53453 29.8816 7.94695 28.5709 8.95452C27.2602 9.96209 25.6532 10.5083 24 10.5083C22.3468 10.5083 20.7398 9.96209 19.4291 8.95452C18.1184 7.94695 17.1773 6.53453 16.7522 4.93687M29.49 4.5C29.49 4.5 27.3544 5.25 24 5.25C20.6456 5.25 18.51 4.5 18.51 4.5C18.1725 4.50001 17.8375 4.55706 17.5191 4.66875L3 9.75L4.55906 18L9.14156 18.5175C9.70275 18.581 10.2195 18.8532 10.5893 19.2801C10.959 19.707 11.1547 20.2574 11.1375 20.8219L10.5 43.5H37.5L36.8625 20.8219C36.8453 20.2574 37.041 19.707 37.4107 19.2801C37.7805 18.8532 38.2973 18.581 38.8584 18.5175L43.4409 18L45 9.75L30.4809 4.66875C30.1625 4.55706 29.8275 4.50001 29.49 4.5Z" stroke="white" stroke-width="3" stroke-linecap="round" stroke-linejoin="round"/>
</svg>
