<svg width="48" height="48" viewBox="0 0 48 48" fill="none" xmlns="http://www.w3.org/2000/svg">
<path d="M42 42V22.5M6 22.5V42M3 43.5H45M27 43.5V29.25C27 28.6533 27.2371 28.081 27.659 27.659C28.081 27.2371 28.6533 27 29.25 27H35.25C35.8467 27 36.419 27.2371 36.841 27.659C37.2629 28.081 37.5 28.6533 37.5 29.25V43.5M35.8566 4.5H12.1434C10.1006 4.5 8.25562 5.625 7.4625 7.35562L3.40312 16.2188C2.03625 19.2009 4.30594 22.5797 7.82719 22.6875H8.01469C10.9584 22.6875 13.3444 20.3269 13.3444 17.7909C13.3444 20.3222 15.7312 22.6875 18.675 22.6875C21.6187 22.6875 24 20.4956 24 17.7909C24 20.3222 26.3859 22.6875 29.3297 22.6875C32.2734 22.6875 34.6603 20.4956 34.6603 17.7909C34.6603 20.4956 37.0462 22.6875 39.99 22.6875H40.1728C43.6941 22.5778 45.9638 19.1991 44.5969 16.2188L40.5375 7.35562C39.7444 5.625 37.8994 4.5 35.8566 4.5ZM12.75 27H20.25C20.8467 27 21.419 27.2371 21.841 27.659C22.2629 28.081 22.5 28.6533 22.5 29.25V37.5H10.5V29.25C10.5 28.6533 10.7371 28.081 11.159 27.659C11.581 27.2371 12.1533 27 12.75 27Z" stroke="white" stroke-width="3" stroke-linecap="round" stroke-linejoin="round"/>
</svg>
