<svg width="48" height="48" viewBox="0 0 48 48" fill="none" xmlns="http://www.w3.org/2000/svg">
<path d="M34.3172 13.6875C33.5373 12.9073 33.0806 11.8615 33.0386 10.7592C32.9965 9.65681 33.3721 8.57921 34.0903 7.74188C34.1497 7.67224 34.1806 7.58272 34.1768 7.49127C34.1729 7.39981 34.1347 7.31319 34.0697 7.24875L29.9325 3.10688C29.8641 3.03852 29.7714 3.00012 29.6747 3.00012C29.578 3.00012 29.4853 3.03852 29.4169 3.10688L22.8225 9.70125C22.5792 9.9445 22.3959 10.2411 22.2872 10.5675C22.1789 10.8947 21.9958 11.1921 21.7525 11.4362C21.5092 11.6803 21.2124 11.8643 20.8856 11.9738C20.559 12.0826 20.2621 12.2658 20.0184 12.5091L3.10688 29.4169C3.03852 29.4853 3.00012 29.578 3.00012 29.6747C3.00012 29.7714 3.03852 29.8641 3.10688 29.9325L7.24406 34.0697C7.3085 34.1347 7.39513 34.1729 7.48658 34.1768C7.57803 34.1806 7.66755 34.1497 7.73719 34.0903C8.57435 33.3713 9.65218 32.9951 10.7549 33.0369C11.8576 33.0787 12.9039 33.5355 13.6842 34.3158C14.4645 35.0961 14.9213 36.1424 14.9631 37.2451C15.0049 38.3478 14.6287 39.4257 13.9097 40.2628C13.8503 40.3325 13.8194 40.422 13.8232 40.5134C13.8271 40.6049 13.8653 40.6915 13.9303 40.7559L18.0675 44.8931C18.1359 44.9615 18.2286 44.9999 18.3253 44.9999C18.422 44.9999 18.5147 44.9615 18.5831 44.8931L35.4956 27.9816C35.7388 27.7379 35.9221 27.441 36.0309 27.1144C36.1393 26.7872 36.3223 26.4898 36.5656 26.2457C36.8089 26.0016 37.1057 25.8175 37.4325 25.7081C37.7589 25.5994 38.0555 25.4161 38.2988 25.1728L44.8931 18.5784C44.9615 18.5101 44.9999 18.4173 44.9999 18.3206C44.9999 18.2239 44.9615 18.1312 44.8931 18.0628L40.7559 13.9256C40.6915 13.8606 40.6049 13.8224 40.5134 13.8185C40.422 13.8147 40.3325 13.8456 40.2628 13.905C39.4266 14.6244 38.3497 15.0017 37.2474 14.9613C36.1451 14.921 35.0986 14.4661 34.3172 13.6875Z" stroke="white" stroke-width="3" stroke-miterlimit="10"/>
<path d="M23.4843 13.1662L21.9365 11.6184M27.6112 17.2931L26.579 16.2618M31.7381 21.4209L30.7068 20.3887M36.3815 26.0634L34.8337 24.5156" stroke="white" stroke-width="3" stroke-miterlimit="10" stroke-linecap="round"/>
</svg>
