<svg width="48" height="48" viewBox="0 0 48 48" fill="none" xmlns="http://www.w3.org/2000/svg">
<path d="M40.9378 17.2603C40.4606 17.7344 39.8152 18.0006 39.1425 18.0006C38.4698 18.0006 37.8244 17.7344 37.3472 17.2603L35.2397 15.1519C34.7654 14.6749 34.4991 14.0297 34.4991 13.357C34.4991 12.6844 34.7654 12.0391 35.2397 11.5622L40.0106 6.79124C40.0198 6.78207 40.0266 6.7708 40.0304 6.7584C40.0342 6.74601 40.035 6.73286 40.0326 6.72011C40.0302 6.70736 40.0247 6.69539 40.0166 6.68524C40.0085 6.67509 39.9981 6.66706 39.9862 6.66186C36.9075 5.34374 32.9147 6.01405 30.3797 8.53124C27.9534 10.9397 27.8156 14.5566 28.7044 17.7187C28.8306 18.1679 28.8303 18.6433 28.7034 19.0923C28.5765 19.5413 28.328 19.9465 27.9853 20.2631L11.7665 35.3344C11.3794 35.681 11.0671 36.1029 10.8486 36.5744C10.6301 37.0459 10.5101 37.5569 10.4958 38.0763C10.4816 38.5958 10.5734 39.1126 10.7657 39.5954C10.958 40.0781 11.2468 40.5165 11.6143 40.8839C11.9818 41.2512 12.4204 41.5397 12.9032 41.7318C13.3861 41.9238 13.903 42.0154 14.4224 42.0009C14.9418 41.9864 15.4528 41.8661 15.9242 41.6473C16.3955 41.4286 16.8173 41.116 17.1637 40.7287L32.3653 24.4819C32.6785 24.1448 33.0777 23.8995 33.5199 23.7723C33.962 23.6451 34.4305 23.6408 34.875 23.76C38.0119 24.5981 41.5772 24.4406 43.9753 22.0781C46.5525 19.5394 47.1084 15.0525 45.8597 12.4847C45.854 12.4734 45.8458 12.4636 45.8356 12.4562C45.8254 12.4487 45.8136 12.4438 45.8012 12.4418C45.7887 12.4398 45.776 12.4407 45.764 12.4446C45.752 12.4485 45.7411 12.4551 45.7322 12.4641L40.9378 17.2603Z" stroke="white" stroke-width="3" stroke-miterlimit="10" stroke-linecap="round"/>
<path d="M21.0001 26.625C19.3613 25.0312 18.6104 24.2897 18.0938 23.7853C17.8353 23.5285 17.6656 23.1958 17.6094 22.8357C17.5533 22.4757 17.6136 22.1071 17.7816 21.7837C17.8702 21.6247 17.9806 21.4789 18.1097 21.3506L19.5797 19.9172C19.7319 19.7648 19.9108 19.6418 20.1076 19.5544C20.4182 19.4169 20.7629 19.3757 21.0972 19.4362C21.4314 19.4967 21.7398 19.6561 21.9826 19.8937C22.4935 20.3897 23.4291 21.3 25.1147 22.9425M29.7254 27.3094C33.5644 30.8812 38.221 35.1159 40.0379 36.629C40.1737 36.741 40.2847 36.8803 40.3635 37.0377C40.4424 37.1952 40.4874 37.3674 40.4957 37.5433C40.504 37.7192 40.4754 37.8948 40.4117 38.059C40.348 38.2232 40.2507 38.3722 40.126 38.4965L36.9966 41.625C36.8692 41.7494 36.7179 41.8467 36.5518 41.9108C36.3856 41.9748 36.2082 42.0045 36.0302 41.9978C35.8523 41.9911 35.6775 41.9483 35.5167 41.872C35.3558 41.7956 35.2121 41.6874 35.0944 41.5537C33.5447 39.7556 29.3672 35.2622 25.7879 31.5225" stroke="white" stroke-width="3" stroke-linecap="round" stroke-linejoin="round"/>
<path d="M1.62559 18.1406L4.38278 15.4463C4.4249 15.4049 4.47489 15.3723 4.5298 15.3506C4.58471 15.3288 4.64343 15.3183 4.70247 15.3197C4.82149 15.3184 4.93627 15.3638 5.02216 15.4463C5.122 15.545 5.24304 15.6197 5.37608 15.6647C5.50912 15.7097 5.65067 15.7238 5.78997 15.7059C6.14903 15.6666 6.53247 15.5559 6.78091 15.3197C7.34341 14.7759 6.69278 13.7044 7.18778 13.0191C7.75379 12.2688 8.37354 11.5607 9.04216 10.9003C9.60466 10.3491 11.8397 8.24532 15.5953 6.73313C16.7963 6.24766 18.0798 5.99873 19.3753 6C21.4931 6 23.1253 6.9375 23.7122 7.46907C24.0644 7.80422 24.3869 8.16934 24.6759 8.56032C24.3936 8.45628 24.1053 8.36956 23.8125 8.30063C23.1966 8.16998 22.5649 8.13018 21.9375 8.1825C20.6878 8.28469 19.1803 8.86313 18.375 9.495C17.0718 10.5263 16.5122 11.9063 16.424 13.6866C16.3603 15.0103 16.679 15.7584 19.8084 18.8888C19.9154 19.0081 19.9718 19.1644 19.9659 19.3246C19.9599 19.4847 19.892 19.6364 19.7765 19.7475L18.0684 21.435C17.9493 21.5518 17.7897 21.6179 17.6229 21.6194C17.4562 21.621 17.2953 21.5579 17.174 21.4434C15.1172 19.3866 13.7381 18.3413 12.9553 17.8659C12.1725 17.3906 11.5425 17.2566 11.2397 17.2238C10.6449 17.1648 10.0466 17.2916 9.52684 17.5866C9.43565 17.6367 9.35227 17.6998 9.27934 17.7741C9.15762 17.8999 9.06202 18.0486 8.99807 18.2115C8.93412 18.3745 8.90307 18.5485 8.90673 18.7235C8.9104 18.8985 8.94869 19.0711 9.0194 19.2313C9.09011 19.3914 9.19184 19.536 9.31872 19.6566L9.47903 19.8066C9.52065 19.847 9.55373 19.8954 9.57632 19.9489C9.59891 20.0023 9.61055 20.0598 9.61055 20.1178C9.61055 20.1759 9.59891 20.2333 9.57632 20.2868C9.55373 20.3402 9.52065 20.3886 9.47903 20.4291L6.72466 23.1188C6.68293 23.161 6.63311 23.1944 6.57819 23.217C6.52326 23.2395 6.46434 23.2507 6.40497 23.25C6.28597 23.2512 6.17123 23.2058 6.08528 23.1234L1.62559 18.7706C1.54488 18.6856 1.49988 18.5729 1.49988 18.4556C1.49988 18.3384 1.54488 18.2256 1.62559 18.1406Z" stroke="white" stroke-width="3" stroke-linecap="round" stroke-linejoin="round"/>
</svg>
