<svg width="48" height="48" viewBox="0 0 48 48" fill="none" xmlns="http://www.w3.org/2000/svg">
<path d="M13.5 43.5H34.5M31.5 40.5L36 45M16.5 40.5L12 45M32.25 4.5H30C30 4.10218 29.842 3.72064 29.5607 3.43934C29.2794 3.15804 28.8978 3 28.5 3H19.5C19.1022 3 18.7206 3.15804 18.4393 3.43934C18.158 3.72064 18 4.10218 18 4.5H15.75C14.3588 4.50396 13.0258 5.05835 12.0421 6.04206C11.0584 7.02577 10.504 8.35883 10.5 9.75V32.9062C10.5 36.2156 24 39 24 39C24 39 37.5 36.2156 37.5 32.9062V9.75C37.5 8.35761 36.9469 7.02226 35.9623 6.03769C34.9777 5.05312 33.6424 4.5 32.25 4.5ZM24 33C23.11 33 22.24 32.7361 21.4999 32.2416C20.7599 31.7471 20.1831 31.0443 19.8425 30.2221C19.5019 29.3998 19.4128 28.495 19.5865 27.6221C19.7601 26.7492 20.1887 25.9474 20.818 25.318C21.4474 24.6887 22.2492 24.2601 23.1221 24.0865C23.995 23.9128 24.8998 24.0019 25.7221 24.3425C26.5443 24.6831 27.2471 25.2599 27.7416 25.9999C28.2361 26.74 28.5 27.61 28.5 28.5C28.5 29.6935 28.0259 30.8381 27.182 31.682C26.3381 32.5259 25.1935 33 24 33ZM33 18C33 18.3978 32.842 18.7794 32.5607 19.0607C32.2794 19.342 31.8978 19.5 31.5 19.5H16.5C16.1022 19.5 15.7206 19.342 15.4393 19.0607C15.158 18.7794 15 18.3978 15 18V12C15 11.6022 15.158 11.2206 15.4393 10.9393C15.7206 10.658 16.1022 10.5 16.5 10.5H31.5C31.8978 10.5 32.2794 10.658 32.5607 10.9393C32.842 11.2206 33 11.6022 33 12V18Z" stroke="white" stroke-width="3" stroke-linecap="round" stroke-linejoin="round"/>
</svg>
