<svg width="48" height="48" viewBox="0 0 48 48" fill="none" xmlns="http://www.w3.org/2000/svg">
<path d="M35.1366 28.9481L42.8906 34.4063C43.119 34.5078 43.3691 34.5507 43.6183 34.531C43.8674 34.5113 44.1077 34.4296 44.3173 34.2934C44.5269 34.1572 44.6991 33.9709 44.8183 33.7512C44.9375 33.5315 45 33.2856 45 33.0356V14.9644C45 14.7145 44.9375 14.4685 44.8183 14.2488C44.6991 14.0292 44.5269 13.8428 44.3173 13.7066C44.1077 13.5704 43.8674 13.4888 43.6183 13.4691C43.3691 13.4494 43.119 13.4922 42.8906 13.5938L35.1366 19.0519C34.9399 19.1903 34.7795 19.374 34.6687 19.5874C34.5579 19.8008 34.5001 20.0377 34.5 20.2781V27.7219C34.5001 27.9624 34.5579 28.1993 34.6687 28.4127C34.7795 28.6261 34.9399 28.8097 35.1366 28.9481Z" stroke="white" stroke-width="3" stroke-linecap="round" stroke-linejoin="round"/>
<path d="M25.125 36H7.875C6.58321 35.9963 5.34539 35.4815 4.43195 34.568C3.51852 33.6546 3.00371 32.4168 3 31.125V16.875C3.00371 15.5832 3.51852 14.3454 4.43195 13.432C5.34539 12.5185 6.58321 12.0037 7.875 12H25.17C26.4498 12.004 27.676 12.5141 28.581 13.419C29.4859 14.324 29.996 15.5502 30 16.83V31.125C29.9963 32.4168 29.4815 33.6546 28.568 34.568C27.6546 35.4815 26.4168 35.9963 25.125 36Z" stroke="white" stroke-width="3" stroke-miterlimit="10"/>
</svg>
