<svg width="48" height="48" viewBox="0 0 48 48" fill="none" xmlns="http://www.w3.org/2000/svg">
<path d="M39 13.5H9C6.51472 13.5 4.5 15.5147 4.5 18V36C4.5 38.4853 6.51472 40.5 9 40.5H39C41.4853 40.5 43.5 38.4853 43.5 36V18C43.5 15.5147 41.4853 13.5 39 13.5Z" stroke="white" stroke-width="3" stroke-linejoin="round"/>
<path d="M38.565 13.5V10.6875C38.5648 9.99768 38.4123 9.31642 38.1185 8.69233C37.8247 8.06823 37.3967 7.51667 36.8652 7.07701C36.3336 6.63735 35.7116 6.32042 35.0435 6.14883C34.3754 5.97724 33.6776 5.95523 33 6.08436L8.31 10.2984C7.2378 10.5028 6.27052 11.0748 5.57498 11.916C4.87944 12.7572 4.49926 13.8147 4.5 14.9062V19.5" stroke="white" stroke-width="3" stroke-linejoin="round"/>
<path d="M34.5 30C33.9067 30 33.3266 29.8241 32.8333 29.4944C32.3399 29.1648 31.9554 28.6962 31.7284 28.1481C31.5013 27.5999 31.4419 26.9967 31.5576 26.4147C31.6734 25.8328 31.9591 25.2982 32.3787 24.8787C32.7982 24.4591 33.3328 24.1734 33.9147 24.0576C34.4967 23.9419 35.0999 24.0013 35.6481 24.2284C36.1962 24.4554 36.6648 24.8399 36.9944 25.3333C37.3241 25.8266 37.5 26.4067 37.5 27C37.5 27.7957 37.1839 28.5587 36.6213 29.1213C36.0587 29.6839 35.2957 30 34.5 30Z" fill="white"/>
</svg>
