<svg width="48" height="48" viewBox="0 0 48 48" fill="none" xmlns="http://www.w3.org/2000/svg">
<path d="M31.5 10.5H16.5C13.1863 10.5 10.5 13.1863 10.5 16.5V31.5C10.5 34.8137 13.1863 37.5 16.5 37.5H31.5C34.8137 37.5 37.5 34.8137 37.5 31.5V16.5C37.5 13.1863 34.8137 10.5 31.5 10.5Z" stroke="white" stroke-width="3" stroke-linejoin="round"/>
<path d="M16.5 10.5V3.75C16.5 3.55109 16.579 3.36032 16.7197 3.21967C16.8603 3.07902 17.0511 3 17.25 3H30.75C30.9489 3 31.1397 3.07902 31.2803 3.21967C31.421 3.36032 31.5 3.55109 31.5 3.75V10.5M31.5 37.5V44.25C31.5 44.4489 31.421 44.6397 31.2803 44.7803C31.1397 44.921 30.9489 45 30.75 45H17.25C17.0511 45 16.8603 44.921 16.7197 44.7803C16.579 44.6397 16.5 44.4489 16.5 44.25V37.5" stroke="white" stroke-width="3" stroke-linejoin="round"/>
</svg>
