<svg width="48" height="48" viewBox="0 0 48 48" fill="none" xmlns="http://www.w3.org/2000/svg">
<path d="M37.5 30C37.5 38.2847 32.2847 43.5 24 43.5C15.7153 43.5 10.5 38.2847 10.5 30C10.5 21.1097 20.1778 9.10783 23.1459 5.63627C23.2516 5.51293 23.3826 5.41391 23.5301 5.34602C23.6776 5.27813 23.8381 5.24298 24.0005 5.24298C24.1629 5.24298 24.3233 5.27813 24.4708 5.34602C24.6183 5.41391 24.7494 5.51293 24.855 5.63627C27.8222 9.10783 37.5 21.1097 37.5 30Z" stroke="white" stroke-width="3" stroke-miterlimit="10"/>
<path d="M32.25 30.75C32.25 32.5402 31.5388 34.2571 30.273 35.523C29.0071 36.7888 27.2902 37.5 25.5 37.5" stroke="white" stroke-width="3" stroke-linecap="round" stroke-linejoin="round"/>
</svg>
